<?xml version="1.0" encoding="utf-8"?>
<!-- Generator: Adobe Illustrator 28.0.0, SVG Export Plug-In . SVG Version: 6.00 Build 0)  -->
<svg version="1.1" id="Layer_1" xmlns="http://www.w3.org/2000/svg" xmlns:xlink="http://www.w3.org/1999/xlink" x="0px" y="0px"
	 viewBox="0 0 64 64" style="enable-background:new 0 0 64 64;" xml:space="preserve">
<style type="text/css">
	.st0{fill:#59B6F8;}
	.st1{fill:#232F3E;}
</style>
<path class="st0" d="M27.7866,28.6133c-0.28-0.6466-0.08-1.3933,0.48-1.8266c1.6667-1.2734,3.6467-3.0467,5.5533-5.4467
	c1.44-1.8133,2.5267-3.5867,3.3534-5.1867c0.5933-1.1533,2.2533-1.1133,2.7666,0.08L44.7866,27.46c0,0,2.7267,6.3267,4.8467,11.2333
	c0.5133,1.1934-0.5934,2.42-1.84,2.0667c-1.7267-0.5-3.7734-0.9267-6.0734-1.12c-3.0533-0.26-5.7-0.0333-7.7733,0.3067
	c-0.6933,0.1133-1.3733-0.2534-1.6533-0.9067l-4.5-10.4267H27.7866z M23.8333,30.14c-0.1267,0.02-0.26,0.0533-0.38,0.1067
	L16.1466,33.4c-1.5933,0.6867-2.3267,2.5333-1.64,4.1267l2.78,6.44l0.0867,0.2l0.1933,0.4533
	c0.5067,1.1733,1.6467,1.88,2.8533,1.8933c0.4267,0,0.86-0.08,1.2734-0.26l4.8-2.0666l-1.52-3.5334l2.86-1.2333L23.8333,30.14z"/>
<path class="st1" d="M34.9866,11.3064c-0.2134-0.5-0.7134-0.8333-1.2534-0.8066c-0.54,0.0133-1.02,0.3466-1.22,0.8533
	c-1.1266,2.92-2.6866,5.64-4.64,8.0867c-1.8,2.2666-3.9133,4.2533-6.2666,5.92l-11.3134,4.88
	c-2.2533,0.9733-3.2999,3.6-2.3266,5.8533l3.0933,7.1467c0.4667,1.0933,1.3333,1.94,2.44,2.38
	c0.5333,0.2133,1.0867,0.32,1.6467,0.32c0.6,0,1.1933-0.12,1.7666-0.3667l0.1534-0.0666c0.56,0.32,1.4266,0.9133,2.3933,1.9199
	c1.3267,1.38,2.4533,3.1201,3.34,5.1734c0.22,0.5066,0.7067,0.8066,1.2267,0.8066c0.1733,0,0.3533-0.0333,0.5266-0.1066l4.96-2.14
	c0.3267-0.14,0.58-0.4067,0.7134-0.7334c0.1333-0.3266,0.1266-0.6933-0.0134-1.02l-3.48-8.06l1.52-0.6533
	c0.32-0.06,0.6534-0.1267,1-0.1867c2.5067-0.4133,5.06-0.5133,7.6-0.3c3.12,0.2667,6.1734,0.9934,9.0667,2.1734
	c0.16,0.0666,0.3333,0.1,0.5,0.1c0.3533,0,0.6933-0.14,0.9533-0.4c0.38-0.3867,0.4867-0.9667,0.2734-1.46
	c-2.0534-4.7667-10.5867-24.5467-12.6467-29.3134H34.9866z M14.4932,43.1531c-0.44-0.1733-0.7866-0.5133-0.98-0.96l-3.0933-7.1533
	c-0.3867-0.9,0.0333-1.96,0.94-2.3467l10.22-4.4133l4.5,10.44l-1.5667,0.6733c-0.0333,0.0133-0.0733,0.0267-0.1066,0.0467
	l-7.8267,3.38l-0.7267,0.3133c-0.44,0.1867-0.92,0.1934-1.3666,0.02H14.4932z M27.2332,49.2465l-2.5466,1.0999
	c-0.92-1.8333-2.0267-3.4266-3.3-4.7533c-0.5-0.52-0.98-0.9533-1.4334-1.3133l4.3334-1.8667l2.9466,6.84V49.2465z M37.0732,37.5531
	c-0.9333-0.08-1.8666-0.1133-2.8-0.1133c-1.8266,0-3.6533,0.1467-5.4666,0.4466c-0.0534,0.0067-0.1067,0.02-0.1534,0.0267
	l-4.7066-10.9266c2.2466-1.6934,4.2733-3.6667,6.0266-5.8734c1.4734-1.8467,2.74-3.8333,3.7867-5.94
	c2.6067,6.0333,7.6267,17.6733,10.2267,23.7067c-2.2467-0.68-4.56-1.12-6.9134-1.32V37.5531z M47.1266,21.1531l5.7266-2.4733
	c0.6734-0.2934,1.46,0.02,1.7534,0.6933c0.2933,0.6733-0.02,1.46-0.6934,1.7533l-5.7266,2.4734
	c-0.1734,0.0733-0.3534,0.1067-0.5267,0.1067c-0.5133,0-1.0067-0.3001-1.2267-0.8067c-0.2933-0.6734,0.02-1.46,0.6934-1.7534
	V21.1531z M42.6332,16.5464l3.06-4.7133c0.4-0.62,1.2267-0.7933,1.8467-0.3933c0.62,0.4,0.7933,1.2266,0.3933,1.8466l-3.06,4.7134
	c-0.2533,0.3933-0.68,0.6066-1.12,0.6066c-0.2466,0-0.5-0.0666-0.7266-0.2133C42.4066,17.9931,42.2332,17.1664,42.6332,16.5464z
	 M55.5332,29.9731c-0.12,0.64-0.68,1.0933-1.3133,1.0933c-0.08,0-0.16-0.0066-0.24-0.02l-5.5267-1.0133
	c-0.7266-0.1333-1.2066-0.8266-1.0733-1.5533c0.1333-0.7267,0.8333-1.2067,1.5533-1.0733l5.5267,1.0133
	C55.1866,28.5531,55.6666,29.2464,55.5332,29.9731z"/>
</svg>
