<?xml version="1.0" encoding="utf-8"?>
<!-- Generator: Adobe Illustrator 28.0.0, SVG Export Plug-In . SVG Version: 6.00 Build 0)  -->
<svg version="1.1" id="Layer_1" xmlns="http://www.w3.org/2000/svg" xmlns:xlink="http://www.w3.org/1999/xlink" x="0px" y="0px"
	 viewBox="0 0 64 64" style="enable-background:new 0 0 64 64;" xml:space="preserve">
<style type="text/css">
	.st0{fill:#59B6F8;}
	.st1{fill:#232F3E;}
</style>
<path class="st0" d="M56.0002,40.0001c-1.3334-0.0134-9.3334,0-9.3334,0c-0.7333,0-1.3333-0.6-1.3333-1.3334v-6.6666
	c0-0.7334,0.6-1.3334,1.3333-1.3334h2.6667l-2.7867-4.4266c-2.46-2.46-1.88-2.24-4.5466-2.24H30.3335
	c-0.6667,0.02-1.1067,0.2133-1.3333,0.6666c-0.0267,0.0534-0.46,0.8734-0.4867,0.9267c-1.92,3.7733-5.46,7.0467-9.8467,7.74
	c-0.7333,0-1.3333,0.6-1.3333,1.3333v12c0,0,3.5667,2.6534,4,4c0,0,32.6667,0,34.6667,0c2.9466,0.0067,5.3333-2.3866,5.3333-5.3333
	S58.9468,40.0001,56.0002,40.0001z"/>
<g>
	<path class="st1" d="M54.1197,34.72H54.113l-8.7867-13.0933c-1.24-1.8533-3.32-2.96-5.5533-2.96h-13.2
		c-0.66-5.2533-5.1467-9.3333-10.5733-9.3333C10.1197,9.3334,5.333,14.12,5.333,20s4.7867,10.6667,10.6667,10.6667
		c5.4266,0,9.9133-4.08,10.5733-9.3333h13.2c1.3467,0,2.5933,0.6666,3.34,1.7733l1.4933,2.2267H41.333
		c-0.7333,0-1.3333,0.6-1.3333,1.3333V36c0,0.7334,0.6,1.3334,1.3333,1.3334h11.9867c2.22,0,4.0333,1.8,4.0333,4.0133
		c0,2.0467-1.5933,3.7867-3.64,3.9867h-0.5467c-0.5933-2.2934-2.68-4-5.16-4c-2.48,0-4.5666,1.7066-5.16,4h-15.02
		c-0.5933-2.2934-2.68-4-5.16-4c-2.48,0-4.5666,1.7066-5.16,4H13.333V44c0-0.7333-0.6-1.3333-1.3333-1.3333
		c-0.7334,0-1.3334,0.6-1.3334,1.3333v2.6667c0,0.7333,0.6,1.3333,1.3334,1.3333h5.5066c0.5934,2.2934,2.68,4,5.16,4
		c2.48,0,4.5667-1.7066,5.16-4h15.02c0.5934,2.2934,2.68,4,5.16,4c2.48,0,4.5667-1.7066,5.16-4h0.6067c0.0333,0,0.0733,0,0.1067,0
		c3.4466-0.28,6.14-3.2,6.14-6.6466C60.0197,37.9067,57.4397,35.12,54.1197,34.72z M15.9997,28c-4.4134,0-8-3.5866-8-8
		c0-4.4133,3.5866-8,8-8c4.4133,0,8,3.5867,8,8C23.9997,24.4134,20.413,28,15.9997,28z M42.6663,34.6667V28h3.7267l4.4733,6.6667
		H42.6663z M22.6663,49.3334c-1.4733,0-2.6666-1.1934-2.6666-2.6667c0-1.4733,1.1933-2.6667,2.6666-2.6667
		c1.4734,0,2.6667,1.1934,2.6667,2.6667C25.333,48.14,24.1397,49.3334,22.6663,49.3334z M47.9997,49.3334
		c-1.4734,0-2.6667-1.1934-2.6667-2.6667c0-1.4733,1.1933-2.6667,2.6667-2.6667c1.4733,0,2.6666,1.1934,2.6666,2.6667
		C50.6663,48.14,49.473,49.3334,47.9997,49.3334z"/>
	<path class="st1" d="M14.6667,38.6667c0-0.7333-0.6-1.3333-1.3334-1.3333h-6C6.6,37.3334,6,37.9334,6,38.6667
		C6,39.4,6.6,40,7.3333,40h6C14.0667,40,14.6667,39.4,14.6667,38.6667z"/>
	<path class="st1" d="M10.6665,33.3333c0-0.7333-0.6-1.3333-1.3333-1.3333H3.9998c-0.7333,0-1.3333,0.6-1.3333,1.3333
		c0,0.7334,0.6,1.3334,1.3333,1.3334h5.3334C10.0665,34.6667,10.6665,34.0667,10.6665,33.3333z"/>
	<path class="st1" d="M18.3932,17.0533V17.06l-3.18,3.18l-1.74-1.3067c-0.5866-0.44-1.4266-0.32-1.8666,0.2667
		c-0.44,0.5867-0.32,1.4267,0.2666,1.8667l2.6667,2c0.24,0.18,0.52,0.2666,0.8,0.2666c0.34,0,0.6867-0.1333,0.94-0.3933l4-4
		c0.52-0.52,0.52-1.3667,0-1.8867C19.7599,16.5333,18.9132,16.5333,18.3932,17.0533z"/>
</g>
</svg>
