<?xml version="1.0" encoding="utf-8"?>
<!-- Generator: Adobe Illustrator 28.0.0, SVG Export Plug-In . SVG Version: 6.00 Build 0)  -->
<svg version="1.1" id="Layer_1" xmlns="http://www.w3.org/2000/svg" xmlns:xlink="http://www.w3.org/1999/xlink" x="0px" y="0px"
	 viewBox="0 0 64 64" style="enable-background:new 0 0 64 64;" xml:space="preserve">
<style type="text/css">
	.st0{fill:#59B6F8;}
	.st1{fill:#232F3E;}
</style>
<path class="st0" d="M40.1132,14.5867c3.9467,2.6266,6.5534,7.1066,6.5534,12.2066c0,3.0867-0.9534,5.9467-2.58,8.3134
	c-1.3867-0.9667-4.92-2.2734-6.3067-3.2467c-0.52-0.36-1.0467-0.7333-1.4-1.2533c-1.12-1.6534-0.0067-3.9-0.4733-5.8267
	c-0.3067-1.2533-1.26-2.2533-1.86-3.4c-1.12-2.1267-0.5334-5.1667,0.9533-7.3467c-4.88,0.3267-9.1067,3.0467-11.52,6.9934
	c1.4867-0.3334,2.9-0.52,3.8933,0.4066c2.2134,2.0667-2.1333,4.7267-1.5,7.9667c0.3934,2-0.5,4.2133-1.9533,5.78
	c-0.2467,0.3267-0.8467,1.1333-0.8467,1.38c0,0.8667,0.7,1.5667,1.5667,1.5667c0.0533,0,0.1067-0.0134,0.16-0.0134
	c2.6867,3.1934,6.7133,5.22,11.2133,5.22c8.1,0,14.6667-6.5666,14.6667-14.6666c0-6.6734-4.4533-12.3-10.5533-14.08H40.1132z"/>
<path class="st1" d="M45.9999,53.3333H33.3332V48c0,0,0-0.02,0-0.0333c4.7667-0.2867,9.3067-2.16,12.8933-5.3534
	c0.5467-0.4866,0.6-1.3333,0.1067-1.88c-0.4933-0.5533-1.3333-0.6-1.88-0.1066c-3.42,3.0466-7.8267,4.72-12.4133,4.72
	c-10.2934,0-18.6667-8.3734-18.6667-18.6667c0-7.4067,4.38-14.12,11.1667-17.1c0.6733-0.2933,0.98-1.08,0.6866-1.76
	c-0.2933-0.6733-1.08-0.98-1.76-0.6867c-7.7533,3.4067-12.76,11.0734-12.76,19.54c0,11.3067,8.84,20.58,19.9667,21.2867
	c0,0.0133,0,0.0267,0,0.04v5.3333H17.9999c-0.7334,0-1.3334,0.6-1.3334,1.3334c0,0.7333,0.6,1.3333,1.3334,1.3333h28
	c0.7333,0,1.3333-0.6,1.3333-1.3333C47.3332,53.9333,46.7332,53.3333,45.9999,53.3333z"/>
<path class="st1" d="M16,26.6667c0,8.82,7.18,16,16,16s16-7.18,16-16s-7.18-16-16-16S16,17.8467,16,26.6667z M19.2,22.9667
	c1.4067,0.36,2.9133-0.0933,4.1867-0.48c1.5466-0.4667,2.52-0.72,3.0733-0.2067c0.3267,0.3067,0.3533,0.5467-0.5933,2.24
	c-0.7534,1.3534-1.6934,3.04-1.3067,5.0134c0.4333,2.22-0.8867,4.68-2.86,5.5866c-1.8933-2.3-3.0333-5.2466-3.0333-8.4533
	C18.6667,25.38,18.86,24.1467,19.2,22.9667z M45.3333,26.6667c0,2.3933-0.64,4.64-1.7533,6.58c-0.72-0.4333-1.6-0.8467-2.46-1.2533
	c-0.9733-0.46-1.98-0.9334-2.58-1.3467c-0.4133-0.2867-0.84-0.5867-1.06-0.9133c-0.3867-0.5667-0.3067-1.44-0.2133-2.4467
	c0.08-0.9,0.18-1.9267-0.0734-2.9467c-0.2533-1.04-0.82-1.8866-1.32-2.64c-0.2466-0.3666-0.4733-0.7133-0.66-1.06
	c-1.1066-2.1066-0.5-4.94,1.3-6.5c5.1267,1.86,8.8134,6.7667,8.8134,12.5267H45.3333z M32,13.3334c0.5333,0,1.06,0.04,1.5733,0.1
	c-1.7466,2.4066-2.1266,5.76-0.7133,8.4466c0.2467,0.4667,0.5267,0.8867,0.7933,1.2934c0.4134,0.6266,0.8067,1.2133,0.9467,1.8
	c0.1467,0.5866,0.08,1.3066,0.0067,2.0666c-0.12,1.3267-0.26,2.8267,0.66,4.1867c0.4933,0.7267,1.1866,1.2133,1.74,1.6
	c0.7866,0.5533,1.9,1.0733,2.9733,1.58c0.72,0.34,1.46,0.6867,2.04,1.0133c-2.4467,2.8-6.0333,4.5734-10.0267,4.5734
	c-3.1466,0-6.04-1.1-8.32-2.9334c2.5534-1.66,4.1067-4.96,3.5-8.0466c-0.2-1.0134,0.3934-2.0734,1.02-3.2
	c0.8134-1.46,2.04-3.66,0.08-5.4867c-1.7133-1.5933-3.9066-0.9333-5.6666-0.3933c-1,0.3066-1.7867,0.52-2.3867,0.4933
	c2.24-4.2133,6.68-7.1,11.7733-7.1L32,13.3334z"/>
</svg>
