<?xml version="1.0" encoding="utf-8"?>
<svg width="32" height="664" viewBox="0 0 32 664" fill="none" xmlns="http://www.w3.org/2000/svg">
<mask id="mask0_6_7149" style="mask-type:alpha" maskUnits="userSpaceOnUse" x="4" y="4" width="24" height="18">
<path d="M6.28571 4H25.7143C26.9767 4 28 5.07452 28 6.4V19.6C28 20.9255 26.9767 22 25.7143 22H6.28571C5.02335 22 4 20.9255 4 19.6V6.4C4 5.07452 5.02335 4 6.28571 4Z" fill="white"/>
</mask>
<g mask="url(#mask0_6_7149)">
<path d="M6.28571 4H25.7143C26.9767 4 28 5.07452 28 6.4V19.6C28 20.9255 26.9767 22 25.7143 22H6.28571C5.02335 22 4 20.9255 4 19.6V6.4C4 5.07452 5.02335 4 6.28571 4Z" fill="#43458B"/>
<path d="M9.09518 8L17 13H14.4233L9.09518 9.63102L4 12.8396V11.2086L9.09518 8ZM6.57671 4L11.9048 7.36898L17 4.16043V5.79144L11.9048 9L4 4H6.57671Z" fill="#FAFAFA"/>
<path d="M16.87 13L11.5833 9.62634L6.29667 13H4V12.8387L11.5833 8L17 11.4543V13H16.87ZM4.13 4L9.41667 7.37366L14.7033 4H17V4.16129L9.41667 9L4 5.5457V4H4.13Z" fill="#E25950"/>
</g>
<path d="M17 9.95286H12.1322V13H8.88222V9.95286H4V7.06H8.88222V4H12.1322V7.06H17V9.95286Z" fill="#FAFAFA"/>
<path d="M17 9.14286H11.2222V13H9.77778V9.14286H4V7.85714H9.77778V4H11.2222V7.85714H17V9.14286Z" fill="#E25950"/>
<path d="M24.9867 12C24.4362 11.9927 23.9952 11.5417 24 10.9912C24.0049 10.4407 24.4539 9.99761 25.0044 10C25.5549 10.0024 26 10.4494 26 11C25.9927 11.5544 25.5412 12.0001 24.9867 12Z" fill="#FAFAFA"/>
<path d="M23.5 13.9999C23.2239 13.9999 23 13.7761 23 13.4999C23 13.2238 23.2239 12.9999 23.5 12.9999C23.7761 12.9999 24 13.2238 24 13.4999C24 13.7761 23.7761 13.9999 23.5 13.9999Z" fill="#FAFAFA"/>
<path d="M22 8C21.4477 8 21 7.55228 21 7C21 6.44772 21.4477 6 22 6C22.5523 6 23 6.44772 23 7C22.9927 7.55443 22.5412 8.00005 21.9867 8H22Z" fill="#FAFAFA"/>
<path d="M20 14C19.4477 14 19 13.5523 19 13C19 12.4477 19.4477 12 20 12C20.5523 12 21 12.4477 21 13C20.9927 13.5544 20.5411 14 19.9867 14H20Z" fill="#FAFAFA"/>
<path d="M22 18C22.5523 18 23 18.4477 23 19C23 19.5523 22.5523 20 22 20C21.4477 20 21 19.5523 21 19C21 18.4529 21.4396 18.0073 21.9867 18H22Z" fill="#FAFAFA"/>
<path fill-rule="evenodd" clip-rule="evenodd" d="M10.4415 19.013L9.56462 19.6448C9.51981 19.6771 9.45732 19.667 9.42503 19.6222C9.41374 19.6065 9.40723 19.5879 9.40628 19.5686L9.35351 18.4891C9.35141 18.4461 9.32205 18.4093 9.28062 18.3977L8.23991 18.106C8.18673 18.0911 8.1557 18.0359 8.17061 17.9827C8.17582 17.9641 8.18631 17.9474 8.2008 17.9347L9.0119 17.2203C9.04419 17.1919 9.05467 17.146 9.03792 17.1064L8.61708 16.1109C8.59557 16.06 8.61938 16.0013 8.67025 15.9798C8.68804 15.9723 8.70763 15.9701 8.72665 15.9735L9.79084 16.1622C9.83321 16.1697 9.87564 16.1493 9.89618 16.1115L10.4121 15.1618C10.4385 15.1133 10.4992 15.0953 10.5477 15.1216C10.5647 15.1309 10.5786 15.1448 10.5879 15.1618L11.1038 16.1115C11.1243 16.1493 11.1667 16.1697 11.2091 16.1622L12.2733 15.9735C12.3277 15.9638 12.3796 16.0001 12.3892 16.0545C12.3926 16.0735 12.3904 16.0931 12.3829 16.1109L11.962 17.1064C11.9453 17.146 11.9558 17.1919 11.9881 17.2203L12.7992 17.9347C12.8406 17.9712 12.8446 18.0344 12.8081 18.0758C12.7953 18.0903 12.7787 18.1008 12.7601 18.106L11.7193 18.3977C11.6779 18.4093 11.6486 18.4461 11.6465 18.4891L11.5937 19.5686C11.591 19.6238 11.5441 19.6663 11.4889 19.6636C11.4696 19.6626 11.451 19.6561 11.4353 19.6448L10.5584 19.013C10.5235 18.9879 10.4764 18.9879 10.4415 19.013Z" fill="#FAFAFA"/>
<path d="M26 26H6C4.89543 26 4 26.8954 4 28V42C4 43.1046 4.89543 44 6 44H26C27.1046 44 28 43.1046 28 42V28C28 26.8954 27.1046 26 26 26Z" fill="#24B47E"/>
<path fill-rule="evenodd" clip-rule="evenodd" d="M16.5369 28.3416L25.6743 34.1563C26.1402 34.4528 26.2776 35.0709 25.9811 35.5369C25.9025 35.6603 25.7978 35.7651 25.6743 35.8437L16.5369 41.6583C16.2094 41.8668 15.7907 41.8668 15.4632 41.6583L6.3258 35.8437C5.85986 35.5471 5.72251 34.9291 6.01901 34.4631C6.09759 34.3396 6.20232 34.2349 6.3258 34.1563L15.4632 28.3416C15.7907 28.1332 16.2094 28.1332 16.5369 28.3416Z" fill="#FCD669"/>
<path d="M16 39C18.2091 39 20 37.2091 20 35C20 32.7909 18.2091 31 16 31C13.7909 31 12 32.7909 12 35C12 37.2091 13.7909 39 16 39Z" fill="#43458B"/>
<path fill-rule="evenodd" clip-rule="evenodd" d="M19.8852 35.9541L19.8815 35.9705C19.7954 36.3162 19.6643 36.644 19.4948 36.9474C17.5582 35.1453 14.9721 34.0327 12.1265 34.0007C12.216 33.6502 12.3527 33.3178 12.5289 33.0109C15.3402 33.1334 17.9003 34.2224 19.8852 35.9541Z" fill="#FAFAFA"/>
<path d="M26 48H6C4.89543 48 4 48.8954 4 50V64C4 65.1046 4.89543 66 6 66H26C27.1046 66 28 65.1046 28 64V50C28 48.8954 27.1046 48 26 48Z" fill="#E25950"/>
<path d="M23 48H9V66H23V48Z" fill="#FAFAFA"/>
<path fill-rule="evenodd" clip-rule="evenodd" d="M15 62.9V60.1C15 60.0448 14.9552 60 14.9 60H13.2414C13.1862 60 13.1414 59.9552 13.1414 59.9C13.1414 59.8735 13.1519 59.848 13.1707 59.8293L13.8856 59.1144C13.9246 59.0753 13.9246 59.012 13.8856 58.973C13.8746 58.962 13.8612 58.9537 13.8465 58.9488L11.1535 58.0512C11.1011 58.0337 11.0728 57.9771 11.0902 57.9247C11.0952 57.9099 11.1034 57.8966 11.1144 57.8856L11.949 57.051C11.9795 57.0205 11.987 56.974 11.9678 56.9355L11.108 55.2159C11.0833 55.1665 11.1033 55.1065 11.1527 55.0818C11.1764 55.0699 11.2039 55.0679 11.229 55.0763L13.8103 55.9367C13.8626 55.9542 13.9193 55.9259 13.9367 55.8735C13.9436 55.853 13.9436 55.8308 13.9367 55.8102L13.0763 53.229C13.0589 53.1766 13.0872 53.12 13.1396 53.1025C13.1647 53.0941 13.1922 53.0961 13.2159 53.108L14.8969 53.9484C14.9463 53.9731 15.0063 53.9531 15.031 53.9037C15.0331 53.8995 15.035 53.8951 15.0364 53.8906L15.9051 51.2846C15.9226 51.2322 15.9792 51.2039 16.0316 51.2213C16.0615 51.2313 16.0849 51.2547 16.0949 51.2846L16.9635 53.8906C16.981 53.943 17.0376 53.9713 17.09 53.9538C17.0945 53.9524 17.0989 53.9505 17.1031 53.9484L18.7841 53.108C18.8335 53.0833 18.8935 53.1033 18.9182 53.1527C18.9301 53.1764 18.932 53.2039 18.9236 53.229L18.0632 55.8102C18.0458 55.8626 18.0741 55.9193 18.1265 55.9367C18.147 55.9436 18.1692 55.9436 18.1897 55.9367L20.771 55.0763C20.8233 55.0589 20.88 55.0872 20.8974 55.1396C20.9058 55.1647 20.9039 55.1922 20.892 55.2159L20.0322 56.9355C20.013 56.974 20.0205 57.0205 20.051 57.051L20.8856 57.8856C20.9246 57.9246 20.9246 57.9879 20.8856 58.027C20.8746 58.038 20.8612 58.0462 20.8465 58.0512L18.1535 58.9488C18.1011 58.9663 18.0728 59.0229 18.0902 59.0753C18.0952 59.09 18.1034 59.1034 18.1144 59.1144L18.8293 59.8293C18.8683 59.8683 18.8683 59.9316 18.8293 59.9707C18.8105 59.9895 18.7851 60 18.7586 60H17.1C17.0448 60 17 60.0448 17 60.1V62.9C17 62.9552 16.9552 63 16.9 63H15.1C15.0448 63 15 62.9552 15 62.9Z" fill="#E25950"/>
<path d="M23 48H9V49H23V48Z" fill="#EAEDED"/>
<path d="M23 65H9V66H23V65Z" fill="#EAEDED"/>
<path d="M26 70H6C4.89543 70 4 70.8954 4 72V86C4 87.1046 4.89543 88 6 88H26C27.1046 88 28 87.1046 28 86V72C28 70.8954 27.1046 70 26 70Z" fill="#E25950"/>
<path fill-rule="evenodd" clip-rule="evenodd" d="M11.4429 79.7398L8.50334 81.7853C8.458 81.8168 8.39568 81.8057 8.36414 81.7603C8.34667 81.7352 8.34165 81.7035 8.3505 81.6742L9.38754 78.2465C9.39965 78.2064 9.38557 78.1631 9.35224 78.1378L6.49845 75.9742C6.45444 75.9409 6.44581 75.8781 6.47918 75.8341C6.49765 75.8098 6.52626 75.7952 6.55683 75.7946L10.1373 75.7216C10.1791 75.7207 10.216 75.694 10.2297 75.6544L11.4056 72.2718C11.4237 72.2196 11.4807 72.192 11.5328 72.2101C11.5617 72.2202 11.5844 72.2429 11.5945 72.2718L12.7703 75.6544C12.784 75.694 12.8209 75.7207 12.8627 75.7216L16.4432 75.7946C16.4984 75.7957 16.5423 75.8414 16.5411 75.8966C16.5405 75.9271 16.5259 75.9558 16.5016 75.9742L13.6478 78.1378C13.6145 78.1631 13.6004 78.2064 13.6125 78.2465L14.6495 81.6742C14.6655 81.7271 14.6356 81.7829 14.5828 81.7989C14.5535 81.8078 14.5218 81.8028 14.4967 81.7853L11.5571 79.7398C11.5228 79.7159 11.4772 79.7159 11.4429 79.7398Z" fill="#FCD669"/>
<path d="M17.5 73.5C18.0523 73.5 18.5 73.0523 18.5 72.5C18.5 71.9477 18.0523 71.5 17.5 71.5C16.9477 71.5 16.5 71.9477 16.5 72.5C16.5 73.0523 16.9477 73.5 17.5 73.5Z" fill="#FCD669"/>
<path d="M20.5 76.5C21.0523 76.5 21.5 76.0523 21.5 75.5C21.5 74.9477 21.0523 74.5 20.5 74.5C19.9477 74.5 19.5 74.9477 19.5 75.5C19.5 76.0523 19.9477 76.5 20.5 76.5Z" fill="#FCD669"/>
<path d="M20.5 80.5C21.0523 80.5 21.5 80.0523 21.5 79.5C21.5 78.9477 21.0523 78.5 20.5 78.5C19.9477 78.5 19.5 78.9477 19.5 79.5C19.5 80.0523 19.9477 80.5 20.5 80.5Z" fill="#FCD669"/>
<path d="M17.5 83.5C18.0523 83.5 18.5 83.0523 18.5 82.5C18.5 81.9477 18.0523 81.5 17.5 81.5C16.9477 81.5 16.5 81.9477 16.5 82.5C16.5 83.0523 16.9477 83.5 17.5 83.5Z" fill="#FCD669"/>
<path fill-rule="evenodd" clip-rule="evenodd" d="M6 92H12V110H6C4.89543 110 4 109.105 4 108V94C4 92.8954 4.89543 92 6 92Z" fill="#555ABF"/>
<path fill-rule="evenodd" clip-rule="evenodd" d="M26 92H20V110H26C27.1046 110 28 109.105 28 108V94C28 92.8954 27.1046 92 26 92Z" fill="#E25950"/>
<path d="M20 92H12V110H20V92Z" fill="#FAFAFA"/>
<path d="M20 92H12V93H20V92Z" fill="#EAEDED"/>
<path d="M20 109H12V110H20V109Z" fill="#EAEDED"/>
<path d="M28 120H4V126H28V120Z" fill="#E25950"/>
<path fill-rule="evenodd" clip-rule="evenodd" d="M4 126H28V130C28 131.105 27.1046 132 26 132H6C4.89543 132 4 131.105 4 130V126Z" fill="#FCD669"/>
<path fill-rule="evenodd" clip-rule="evenodd" d="M4 120H28V116C28 114.895 27.1046 114 26 114H6C4.89543 114 4 114.895 4 116V120Z" fill="#333333"/>
<path d="M28 142H4V148H28V142Z" fill="#FAFAFA"/>
<path fill-rule="evenodd" clip-rule="evenodd" d="M4 148H28V152C28 153.105 27.1046 154 26 154H6C4.89543 154 4 153.105 4 152V148Z" fill="#24B47E"/>
<path fill-rule="evenodd" clip-rule="evenodd" d="M4 142H28V138C28 136.895 27.1046 136 26 136H6C4.89543 136 4 136.895 4 138V142Z" fill="#F79A59"/>
<path d="M28 142H27V148H28V142Z" fill="#EAEDED"/>
<path d="M5 142H4V148H5V142Z" fill="#EAEDED"/>
<path d="M16 146.5C16.8284 146.5 17.5 145.828 17.5 145C17.5 144.172 16.8284 143.5 16 143.5C15.1716 143.5 14.5 144.172 14.5 145C14.5 145.828 15.1716 146.5 16 146.5Z" stroke="#6772E5"/>
<path fill-rule="evenodd" clip-rule="evenodd" d="M6 158H12V176H6C4.89543 176 4 175.105 4 174V160C4 158.895 4.89543 158 6 158Z" fill="#24B47E"/>
<path fill-rule="evenodd" clip-rule="evenodd" d="M26 158H20V176H26C27.1046 176 28 175.105 28 174V160C28 158.895 27.1046 158 26 158Z" fill="#E25950"/>
<path d="M20 158H12V176H20V158Z" fill="#FAFAFA"/>
<path d="M20 158H12V159H20V158Z" fill="#EAEDED"/>
<path d="M20 175H12V176H20V175Z" fill="#EAEDED"/>
<path d="M6.08696 180.5H25.913C26.7826 180.5 27.5 181.217 27.5 182.118V195.882C27.5 196.783 26.7826 197.5 25.913 197.5H6.08696C5.21736 197.5 4.5 196.783 4.5 195.882V182.118C4.5 181.217 5.21736 180.5 6.08696 180.5Z" fill="#FAFAFA" stroke="#EAEDED"/>
<path d="M16 193C18.2091 193 20 191.209 20 189C20 186.791 18.2091 185 16 185C13.7909 185 12 186.791 12 189C12 191.209 13.7909 193 16 193Z" fill="#E25950"/>
<path d="M6.08696 202.5H25.913C26.7826 202.5 27.5 203.217 27.5 204.118V217.882C27.5 218.783 26.7826 219.5 25.913 219.5H6.08696C5.21736 219.5 4.5 218.783 4.5 217.882V204.118C4.5 203.217 5.21736 202.5 6.08696 202.5Z" fill="#FAFAFA" stroke="#EAEDED"/>
<path fill-rule="evenodd" clip-rule="evenodd" d="M18.7676 210.413C17.8417 209.812 16.6023 210.075 16.001 211.001C15.3997 211.927 14.1603 212.19 13.2344 211.589C12.3085 210.988 12.045 209.748 12.6463 208.822C11.4432 210.675 11.9698 213.152 13.8224 214.356C15.6751 215.559 18.1526 215.032 19.3557 213.179C19.957 212.254 19.6935 211.014 18.7676 210.413Z" fill="#43458B"/>
<path fill-rule="evenodd" clip-rule="evenodd" d="M13.2345 211.589C14.1604 212.19 15.3998 211.927 16.0011 211.001C16.6024 210.075 17.8418 209.812 18.7677 210.413C19.6936 211.014 19.957 212.254 19.3558 213.179C20.5594 211.326 20.0323 208.849 18.1796 207.646C16.327 206.443 13.85 206.969 12.6464 208.822C12.0451 209.748 12.3086 210.988 13.2345 211.589Z" fill="#E25950"/>
<path d="M23.2973 205.398L22.6954 204.599C22.5293 204.379 22.2158 204.335 21.9952 204.501C21.7747 204.667 21.7306 204.981 21.8968 205.201L22.4986 206C22.6648 206.22 22.9783 206.264 23.1988 206.098C23.4194 205.932 23.4634 205.619 23.2973 205.398Z" fill="#232F3E"/>
<path d="M24.5009 206.995L23.8991 206.197C23.7329 205.976 23.4194 205.932 23.1988 206.098C22.9783 206.264 22.9342 206.578 23.1004 206.798L23.7022 207.597C23.8684 207.818 24.1819 207.862 24.4025 207.695C24.623 207.529 24.6671 207.216 24.5009 206.995Z" fill="#232F3E"/>
<path d="M23.3029 207.898L21.4974 205.502C21.3313 205.282 21.0178 205.237 20.7972 205.404C20.5767 205.57 20.5326 205.883 20.6988 206.104L22.5043 208.5C22.6704 208.72 22.9839 208.764 23.2045 208.598C23.425 208.432 23.4691 208.118 23.3029 207.898Z" fill="#232F3E"/>
<path d="M20.9013 207.203L20.2994 206.405C20.1333 206.184 19.8198 206.14 19.5992 206.306C19.3787 206.473 19.3346 206.786 19.5008 207.007L20.1026 207.805C20.2688 208.026 20.5823 208.07 20.8028 207.904C21.0234 207.737 21.0674 207.424 20.9013 207.203Z" fill="#232F3E"/>
<path d="M22.1049 208.801L21.5031 208.002C21.3369 207.782 21.0234 207.737 20.8028 207.904C20.5823 208.07 20.5382 208.383 20.7044 208.604L21.3062 209.402C21.4724 209.623 21.7859 209.667 22.0065 209.501C22.227 209.335 22.2711 209.021 22.1049 208.801Z" fill="#232F3E"/>
<path d="M9.30655 204.599L7.5011 206.995C7.33492 207.216 7.37898 207.529 7.59951 207.695C7.82005 207.862 8.13355 207.818 8.29974 207.597L10.1052 205.201C10.2714 204.981 10.2273 204.667 10.0068 204.501C9.78624 204.335 9.47273 204.379 9.30655 204.599Z" fill="#232F3E"/>
<path d="M10.5045 205.502L8.6991 207.898C8.53291 208.118 8.57697 208.432 8.79751 208.598C9.01805 208.764 9.33155 208.72 9.49774 208.5L11.3032 206.104C11.4694 205.883 11.4253 205.57 11.2048 205.404C10.9842 205.237 10.6707 205.281 10.5045 205.502Z" fill="#232F3E"/>
<path d="M11.7025 206.405L9.8971 208.801C9.73091 209.021 9.77497 209.335 9.99551 209.501C10.216 209.667 10.5295 209.623 10.6957 209.402L12.5012 207.007C12.6674 206.786 12.6233 206.473 12.4028 206.306C12.1822 206.14 11.8687 206.184 11.7025 206.405Z" fill="#232F3E"/>
<path d="M12.5009 214.995L10.6954 212.599C10.5293 212.379 10.2158 212.335 9.99521 212.501C9.77468 212.667 9.73062 212.981 9.8968 213.201L11.7022 215.597C11.8684 215.818 12.1819 215.862 12.4025 215.695C12.623 215.529 12.6671 215.216 12.5009 214.995Z" fill="#232F3E"/>
<path d="M10.1049 216.801L8.29944 214.405C8.13326 214.184 7.81975 214.14 7.59922 214.306C7.37868 214.473 7.33462 214.786 7.50081 215.007L9.30625 217.402C9.47244 217.623 9.78594 217.667 10.0065 217.501C10.227 217.335 10.2711 217.021 10.1049 216.801Z" fill="#232F3E"/>
<path d="M10.0993 214.301L9.49744 213.502C9.33125 213.282 9.01775 213.237 8.79722 213.404C8.57668 213.57 8.53262 213.883 8.69881 214.104L9.30062 214.902C9.46681 215.123 9.78031 215.167 10.0008 215.001C10.2214 214.835 10.2654 214.521 10.0993 214.301Z" fill="#232F3E"/>
<path d="M11.3029 215.898L10.7011 215.099C10.5349 214.879 10.2214 214.835 10.0008 215.001C9.78029 215.167 9.73623 215.481 9.90242 215.701L10.5042 216.5C10.6704 216.72 10.9839 216.764 11.2045 216.598C11.425 216.432 11.4691 216.119 11.3029 215.898Z" fill="#232F3E"/>
<path d="M21.3009 215.099L20.6991 215.898C20.5329 216.118 20.577 216.432 20.7975 216.598C21.018 216.764 21.3315 216.72 21.4977 216.5L22.0996 215.701C22.2657 215.481 22.2217 215.167 22.0011 215.001C21.7806 214.835 21.4671 214.879 21.3009 215.099Z" fill="#232F3E"/>
<path d="M22.5045 213.502L21.9027 214.301C21.7365 214.521 21.7806 214.835 22.0011 215.001C22.2217 215.167 22.5352 215.123 22.7013 214.902L23.3032 214.104C23.4694 213.883 23.4253 213.57 23.2048 213.404C22.9842 213.237 22.6707 213.281 22.5045 213.502Z" fill="#232F3E"/>
<path d="M22.4989 216.002L21.8971 216.801C21.7309 217.021 21.775 217.335 21.9955 217.501C22.216 217.667 22.5295 217.623 22.6957 217.402L23.2975 216.604C23.4637 216.383 23.4197 216.07 23.1991 215.904C22.9786 215.737 22.6651 215.781 22.4989 216.002Z" fill="#232F3E"/>
<path d="M23.7025 214.405L23.1007 215.203C22.9345 215.424 22.9786 215.737 23.1991 215.904C23.4197 216.07 23.7332 216.026 23.8993 215.805L24.5012 215.007C24.6673 214.786 24.6233 214.472 24.4028 214.306C24.1822 214.14 23.8687 214.184 23.7025 214.405Z" fill="#232F3E"/>
<path d="M20.1029 214.197L19.5011 214.995C19.3349 215.216 19.379 215.529 19.5995 215.695C19.8201 215.862 20.1336 215.818 20.2997 215.597L20.9016 214.798C21.0677 214.578 21.0237 214.264 20.8031 214.098C20.5826 213.932 20.2691 213.976 20.1029 214.197Z" fill="#232F3E"/>
<path d="M21.3065 212.599L20.7047 213.398C20.5385 213.618 20.5826 213.932 20.8031 214.098C21.0237 214.264 21.3372 214.22 21.5034 214L22.1052 213.201C22.2714 212.981 22.2273 212.667 22.0068 212.501C21.7862 212.335 21.4727 212.379 21.3065 212.599Z" fill="#232F3E"/>
<path fill-rule="evenodd" clip-rule="evenodd" d="M6 224H11V242H6C4.89543 242 4 241.105 4 240V226C4 224.895 4.89543 224 6 224Z" fill="#24B47E"/>
<path fill-rule="evenodd" clip-rule="evenodd" d="M26 224H21V242H26C27.1046 242 28 241.105 28 240V226C28 224.895 27.1046 224 26 224Z" fill="#E25950"/>
<path d="M21 224H11V242H21V224Z" fill="#FAFAFA"/>
<path d="M21 224H11V225H21V224Z" fill="#EAEDED"/>
<path d="M21 241H11V242H21V241Z" fill="#EAEDED"/>
<path fill-rule="evenodd" clip-rule="evenodd" d="M16 237C13.794 237 12 235.037 12 232.625C12 232.28 12.255 232 12.571 232C12.887 232 13.143 232.28 13.143 232.625C13.143 234.349 14.425 235.749 16 235.749C17.575 235.749 18.857 234.349 18.857 232.625C18.857 232.28 19.113 232 19.429 232C19.745 232 20 232.28 20 232.625C20 235.037 18.206 237 16 237Z" fill="#24B47E"/>
<path fill-rule="evenodd" clip-rule="evenodd" d="M14.61 229H16.0001C16.958 229 17.7346 229.777 17.7346 230.735C17.7346 230.817 17.7288 230.899 17.7172 230.98L17.2631 234.159C17.2039 234.573 16.8195 234.862 16.4046 234.802C16.2026 234.774 16.0207 234.665 15.9001 234.5L15.0617 233.357C14.8893 233.122 14.7704 232.852 14.7133 232.566L14.1197 229.598C14.0655 229.327 14.2411 229.064 14.5119 229.01C14.5442 229.003 14.577 229 14.61 229Z" fill="#966A5B"/>
<path fill-rule="evenodd" clip-rule="evenodd" d="M14.61 229H14.8001C15.2419 229 15.6001 229.358 15.6001 229.8V231.83C15.6001 231.943 15.619 232.054 15.6562 232.16L16.3856 234.244C16.4362 234.389 16.36 234.547 16.2154 234.598C16.1002 234.638 15.9722 234.598 15.9001 234.5L15.0617 233.357C14.8893 233.122 14.7704 232.852 14.7133 232.566L14.1197 229.598C14.0655 229.327 14.2411 229.064 14.5119 229.01C14.5442 229.003 14.577 229 14.61 229Z" fill="#785353"/>
<path d="M28 252H4V258H28V252Z" fill="#FAFAFA"/>
<path fill-rule="evenodd" clip-rule="evenodd" d="M4 258H28V262C28 263.105 27.1046 264 26 264H6C4.89543 264 4 263.105 4 262V258Z" fill="#43458B"/>
<path fill-rule="evenodd" clip-rule="evenodd" d="M4 252H28V248C28 246.895 27.1046 246 26 246H6C4.89543 246 4 246.895 4 248V252Z" fill="#E25950"/>
<path d="M28 252H27V258H28V252Z" fill="#EAEDED"/>
<path d="M5 252H4V258H5V252Z" fill="#EAEDED"/>
<path d="M27.5 277.5H4.5V284.2C4.5 284.87 5.12072 285.5 6 285.5H26C26.8793 285.5 27.5 284.87 27.5 284.2V277.5Z" fill="#FAFAFA" stroke="#EDEDED"/>
<path fill-rule="evenodd" clip-rule="evenodd" d="M4 278H28V270C28 268.895 27.1046 268 26 268H6C4.89543 268 4 268.895 4 270V278Z" fill="#E25950"/>
<path fill-rule="evenodd" clip-rule="evenodd" d="M8.99932 270C9.35022 270 9.68704 270.06 10 270.171C8.83421 270.582 7.99955 271.694 7.99955 273C7.99955 274.306 8.83421 275.418 9.99919 275.829C9.68704 275.94 9.35022 276 8.99932 276C7.34284 276 6 274.657 6 273C6 271.343 7.34284 270 8.99932 270Z" fill="#FAFAFA"/>
<circle cx="12.5" cy="271.5" r="0.5" fill="#FAFAFA"/>
<circle cx="10.5" cy="272.5" r="0.5" fill="#FAFAFA"/>
<circle cx="14.5" cy="272.5" r="0.5" fill="#FAFAFA"/>
<circle cx="13.5" cy="274.5" r="0.5" fill="#FAFAFA"/>
<circle cx="11.5" cy="274.5" r="0.5" fill="#FAFAFA"/>
<path d="M28 294.5H4V303.5H28V294.5Z" fill="#FCD669"/>
<path d="M10.2425 296.939L11.5037 296.624C12.0176 296.496 12.0943 295.797 11.6205 295.56C11.5412 295.521 11.4539 295.5 11.3653 295.5L8.63469 295.5C8.54611 295.5 8.45875 295.521 8.37953 295.56C7.90574 295.797 7.98242 296.496 8.49631 296.624L9.75746 296.939C9.9167 296.979 10.0833 296.979 10.2425 296.939Z" fill="#E25950"/>
<path fill-rule="evenodd" clip-rule="evenodd" d="M4 303.5H28V306C28 307.105 27.1046 308 26 308H6C4.89543 308 4 307.105 4 306V303.5Z" fill="#E25950"/>
<path fill-rule="evenodd" clip-rule="evenodd" d="M4 294.5C13.3726 294.5 18.6274 294.5 28 294.5V292C28 290.895 27.1046 290 26 290H6C4.89543 290 4 290.895 4 292V294.5Z" fill="#E25950"/>
<path d="M10 297.5H8V300H10V297.5Z" fill="#E25950"/>
<path d="M12 297.5H10V300H12V297.5Z" fill="#FAFAFA"/>
<path fill-rule="evenodd" clip-rule="evenodd" d="M10 300H12V300.833C12 301.754 11.1046 302.5 10 302.5V300Z" fill="#E25950"/>
<path fill-rule="evenodd" clip-rule="evenodd" d="M8 300H10V302.5C8.89543 302.5 8 301.754 8 300.833V300Z" fill="#EE975C"/>
<path d="M7 297.5V301.5" stroke="#FAFAFA" stroke-linecap="round"/>
<path d="M13 297.5V301.5" stroke="#FAFAFA" stroke-linecap="round"/>
<circle cx="10" cy="300" r="1" fill="#555ABF"/>
<path d="M26 312H6C4.89543 312 4 312.895 4 314V328C4 329.105 4.89543 330 6 330H26C27.1046 330 28 329.105 28 328V314C28 312.895 27.1046 312 26 312Z" fill="#E25950"/>
<mask id="mask1_6_7149" style="mask-type:alpha" maskUnits="userSpaceOnUse" x="4" y="312" width="13" height="9">
<path d="M6 312H17V321H4V314C4 312.895 4.89543 312 6 312Z" fill="white"/>
</mask>
<g mask="url(#mask1_6_7149)">
<path d="M6 312H17V321H4V314C4 312.895 4.89543 312 6 312Z" fill="#555ABF"/>
<path d="M11 313.5C11 313.224 10.7761 313 10.5 313C10.2239 313 10 313.224 10 313.5V319.5C10 319.776 10.2239 320 10.5 320C10.7761 320 11 319.776 11 319.5V313.5Z" fill="#FAFAFA"/>
<path d="M13.5 317C13.7761 317 14 316.776 14 316.5C14 316.224 13.7761 316 13.5 316H7.5C7.22386 316 7 316.224 7 316.5C7 316.776 7.22386 317 7.5 317H13.5Z" fill="#FAFAFA"/>
<path d="M12.9749 314.732C13.1702 314.537 13.1702 314.22 12.9749 314.025C12.7796 313.83 12.463 313.83 12.2678 314.025L8.02514 318.268C7.82988 318.463 7.82988 318.78 8.02514 318.975C8.22041 319.17 8.53699 319.17 8.73225 318.975L12.9749 314.732Z" fill="#FAFAFA"/>
<path d="M8.02511 314.732C7.82985 314.537 7.82985 314.22 8.02511 314.025C8.22037 313.83 8.53695 313.83 8.73222 314.025L12.9749 318.268C13.1701 318.463 13.1701 318.78 12.9749 318.975C12.7796 319.17 12.463 319.17 12.2677 318.975L8.02511 314.732Z" fill="white"/>
<path d="M10.5 318C11.3284 318 12 317.328 12 316.5C12 315.672 11.3284 315 10.5 315C9.67157 315 9 315.672 9 316.5C9 317.328 9.67157 318 10.5 318Z" fill="#FAFAFA" stroke="#555ABF"/>
</g>
<path d="M28 338H4V340H28V338Z" fill="#FAFAFA"/>
<path d="M28 338H27V340H28V338Z" fill="#EAEDED"/>
<path d="M5 338H4V340H5V338Z" fill="#EAEDED"/>
<path d="M28 346H4V348H28V346Z" fill="#FAFAFA"/>
<path d="M28 346H27V348H28V346Z" fill="#EAEDED"/>
<path d="M5 346H4V348H5V346Z" fill="#EAEDED"/>
<path d="M28 340H4V346H28V340Z" fill="#555ABF"/>
<path fill-rule="evenodd" clip-rule="evenodd" d="M4 348H28V350C28 351.105 27.1046 352 26 352H6C4.89543 352 4 351.105 4 350V348Z" fill="#E25950"/>
<path fill-rule="evenodd" clip-rule="evenodd" d="M4 338H28V336C28 334.895 27.1046 334 26 334H6C4.89543 334 4 334.895 4 336V338Z" fill="#E25950"/>
<path d="M26 356H6C4.89543 356 4 356.895 4 358V372C4 373.105 4.89543 374 6 374H26C27.1046 374 28 373.105 28 372V358C28 356.895 27.1046 356 26 356Z" fill="#E25950"/>
<path fill-rule="evenodd" clip-rule="evenodd" d="M12.1539 359C13.6087 359 14.9457 359.492 15.9991 360.315C15.4404 360.111 14.8361 360 14.2052 360C11.373 360 9.07696 362.239 9.07696 365C9.07696 367.761 11.373 370 14.2052 370C14.8361 370 15.4404 369.889 15.9986 369.686C14.9457 370.508 13.6087 371 12.1539 371C8.7552 371 6 368.314 6 365C6 361.686 8.7552 359 12.1539 359Z" fill="#FAFAFA"/>
<path fill-rule="evenodd" clip-rule="evenodd" d="M18.507 366.701L17.063 368.751C17.0312 368.796 16.9688 368.807 16.9237 368.775C16.8987 368.757 16.8831 368.729 16.8814 368.699L16.7429 366.195C16.7406 366.154 16.7125 366.118 16.6726 366.105L14.2772 365.365C14.2244 365.349 14.1949 365.293 14.2112 365.24C14.2202 365.211 14.2421 365.188 14.2706 365.177L16.6085 364.271C16.6475 364.256 16.673 364.218 16.6724 364.177L16.636 361.67C16.6352 361.615 16.6793 361.569 16.7345 361.568C16.7651 361.568 16.7942 361.581 16.8135 361.605L18.397 363.549C18.4234 363.581 18.4672 363.594 18.5068 363.58L20.8796 362.771C20.9319 362.753 20.9887 362.781 21.0066 362.833C21.0164 362.862 21.0125 362.894 20.9959 362.92L19.6366 365.027C19.614 365.062 19.6155 365.107 19.6406 365.141L21.1436 367.147C21.1767 367.192 21.1677 367.254 21.1235 367.287C21.099 367.306 21.0675 367.312 21.0379 367.304L18.6144 366.662C18.5739 366.651 18.5311 366.667 18.507 366.701Z" fill="#FAFAFA"/>
<path d="M28 384H11V390H28V384Z" fill="#FAFAFA"/>
<path fill-rule="evenodd" clip-rule="evenodd" d="M11 390H28V394C28 395.105 27.1046 396 26 396H11V390Z" fill="#333333"/>
<path fill-rule="evenodd" clip-rule="evenodd" d="M6 378H11V396H6C4.89543 396 4 395.105 4 394V380C4 378.895 4.89543 378 6 378Z" fill="#E25950"/>
<path fill-rule="evenodd" clip-rule="evenodd" d="M11 384H28V380C28 378.895 27.1046 378 26 378H11V384Z" fill="#24B47E"/>
<path d="M28 384H27V390H28V384Z" fill="#EAEDED"/>
<mask id="mask2_6_7149" style="mask-type:alpha" maskUnits="userSpaceOnUse" x="4" y="400" width="24" height="18">
<path d="M26 400H6C4.89543 400 4 400.895 4 402V416C4 417.105 4.89543 418 6 418H26C27.1046 418 28 417.105 28 416V402C28 400.895 27.1046 400 26 400Z" fill="white"/>
</mask>
<g mask="url(#mask2_6_7149)">
<path d="M26 400H6C4.89543 400 4 400.895 4 402V416C4 417.105 4.89543 418 6 418H26C27.1046 418 28 417.105 28 416V402C28 400.895 27.1046 400 26 400Z" fill="#43458B"/>
<path d="M30.549 418.236L4.30054 398.456L2.49509 400.852L28.7436 420.632L30.549 418.236Z" fill="#FAFAFA"/>
<path d="M29.9472 419.035L3.69873 399.255L3.09692 400.054L29.3454 419.833L29.9472 419.035Z" fill="#E25950"/>
<path d="M29.5801 400.768L3.2251 420.628L1.41965 418.232L27.7746 398.372L29.5801 400.768Z" fill="#FAFAFA"/>
<path d="M28.9783 399.969L2.62329 419.829L2.02148 419.031L28.3764 399.171L28.9783 399.969Z" fill="#E25950"/>
<path fill-rule="evenodd" clip-rule="evenodd" d="M4 406H11L12 407H14V406H18V407H21L22 406H28V412H22L21 411H18V412H14V411H12L11 412H4V406Z" fill="#FAFAFA"/>
<path d="M19 400H13V418H19V400Z" fill="#FAFAFA"/>
<path fill-rule="evenodd" clip-rule="evenodd" d="M15 400H17V407.5C17 407.776 17.2239 408 17.5 408H28V410H17.5C17.2239 410 17 410.224 17 410.5V418H15V410.5C15 410.224 14.7761 410 14.5 410H4V408H14.5C14.7761 408 15 407.776 15 407.5V400Z" fill="#E25950"/>
</g>
<path d="M6 422.5H26C26.8284 422.5 27.5 423.172 27.5 424V438C27.5 438.828 26.8284 439.5 26 439.5H6C5.17157 439.5 4.5 438.828 4.5 438V424C4.5 423.172 5.17157 422.5 6 422.5Z" fill="#FAFAFA" stroke="#EAEDED"/>
<path d="M6 422H17V432H4V424C4 422.895 4.89543 422 6 422Z" fill="#43458B"/>
<path d="M6 431C6.55228 431 7 430.552 7 430C7 429.448 6.55228 429 6 429C5.44772 429 5 429.448 5 430C5 430.552 5.44772 431 6 431Z" fill="#FAFAFA"/>
<path d="M9 431C9.55228 431 10 430.552 10 430C10 429.448 9.55228 429 9 429C8.44772 429 8 429.448 8 430C8 430.552 8.44772 431 9 431Z" fill="#FAFAFA"/>
<path d="M12 431C12.5523 431 13 430.552 13 430C13 429.448 12.5523 429 12 429C11.4477 429 11 429.448 11 430C11 430.552 11.4477 431 12 431Z" fill="#FAFAFA"/>
<path d="M15 431C15.5523 431 16 430.552 16 430C16 429.448 15.5523 429 15 429C14.4477 429 14 429.448 14 430C14 430.552 14.4477 431 15 431Z" fill="#FAFAFA"/>
<path d="M6 428C6.55228 428 7 427.552 7 427C7 426.448 6.55228 426 6 426C5.44772 426 5 426.448 5 427C5 427.552 5.44772 428 6 428Z" fill="#FAFAFA"/>
<path d="M9 428C9.55228 428 10 427.552 10 427C10 426.448 9.55228 426 9 426C8.44772 426 8 426.448 8 427C8 427.552 8.44772 428 9 428Z" fill="#FAFAFA"/>
<path d="M12 428C12.5523 428 13 427.552 13 427C13 426.448 12.5523 426 12 426C11.4477 426 11 426.448 11 427C11 427.552 11.4477 428 12 428Z" fill="#FAFAFA"/>
<path d="M15 428C15.5523 428 16 427.552 16 427C16 426.448 15.5523 426 15 426C14.4477 426 14 426.448 14 427C14 427.552 14.4477 428 15 428Z" fill="#FAFAFA"/>
<path d="M6 425C6.55228 425 7 424.552 7 424C7 423.448 6.55228 423 6 423C5.44772 423 5 423.448 5 424C5 424.552 5.44772 425 6 425Z" fill="#FAFAFA"/>
<path d="M9 425C9.55228 425 10 424.552 10 424C10 423.448 9.55228 423 9 423C8.44772 423 8 423.448 8 424C8 424.552 8.44772 425 9 425Z" fill="#FAFAFA"/>
<path d="M12 425C12.5523 425 13 424.552 13 424C13 423.448 12.5523 423 12 423C11.4477 423 11 423.448 11 424C11 424.552 11.4477 425 12 425Z" fill="#FAFAFA"/>
<path d="M15 425C15.5523 425 16 424.552 16 424C16 423.448 15.5523 423 15 423C14.4477 423 14 423.448 14 424C14 424.552 14.4477 425 15 425Z" fill="#FAFAFA"/>
<path d="M28 426H17V428H28V426Z" fill="#E25950"/>
<path d="M28 430H17V432H28V430Z" fill="#E25950"/>
<path d="M28 434H4V436H28V434Z" fill="#E25950"/>
<path fill-rule="evenodd" clip-rule="evenodd" d="M4 438H28C28 439.105 27.1046 440 26 440H6C4.89543 440 4 439.105 4 438Z" fill="#E25950"/>
<path fill-rule="evenodd" clip-rule="evenodd" d="M17 422H26C27.1046 422 28 422.895 28 424H17V422Z" fill="#E25950"/>
<path d="M6.08696 444.5H25.913C26.7826 444.5 27.5 445.217 27.5 446.118V459.882C27.5 460.783 26.7826 461.5 25.913 461.5H6.08696C5.21736 461.5 4.5 460.783 4.5 459.882V446.118C4.5 445.217 5.21736 444.5 6.08696 444.5Z" fill="#FAFAFA" stroke="#EAEDED"/>
<path fill-rule="evenodd" clip-rule="evenodd" d="M4 453H28V460C28 461.105 27.1046 462 26 462H6C4.89543 462 4 461.105 4 460V453Z" fill="#E25950"/>
<path d="M26 466H6C4.89543 466 4 466.895 4 468V482C4 483.105 4.89543 484 6 484H26C27.1046 484 28 483.105 28 482V468C28 466.895 27.1046 466 26 466Z" fill="#24B47E"/>
<path fill-rule="evenodd" clip-rule="evenodd" d="M8.5 478H19.5C19.7761 478 20 477.776 20 477.5C20 477.224 20.2239 477 20.5 477C20.7761 477 21 477.224 21 477.5C21 477.776 21.2239 478 21.5 478H23C23.5523 478 24 478.448 24 479V479.5C24 479.776 23.7761 480 23.5 480C23.2239 480 23 479.776 23 479.5C23 479.224 22.7761 479 22.5 479H21.5C21.2239 479 21 479.224 21 479.5C21 479.776 20.7761 480 20.5 480C20.2239 480 20 479.776 20 479.5C20 479.224 19.7761 479 19.5 479H8.5C8.22386 479 8 478.776 8 478.5C8 478.224 8.22386 478 8.5 478Z" fill="#EDEDED"/>
<path d="M10 470.5C10 470.224 9.77614 470 9.5 470C9.22386 470 9 470.224 9 470.5V473.5C9 473.776 9.22386 474 9.5 474C9.77614 474 10 473.776 10 473.5V470.5Z" fill="#FAFAFA"/>
<path d="M14 470.5C14 470.224 13.7761 470 13.5 470C13.2239 470 13 470.224 13 470.5V471.5C13 471.776 13.2239 472 13.5 472C13.7761 472 14 471.776 14 471.5V470.5Z" fill="#FAFAFA"/>
<path d="M23 470.5C23 470.224 22.7761 470 22.5 470C22.2239 470 22 470.224 22 470.5V471.5C22 471.776 22.2239 472 22.5 472C22.7761 472 23 471.776 23 471.5V470.5Z" fill="#FAFAFA"/>
<path fill-rule="evenodd" clip-rule="evenodd" d="M24.5 470C24.7761 470 25 470.224 25 470.5V474.5C25 475.328 24.3284 476 23.5 476H22.5C22.2239 476 22 475.776 22 475.5C22 475.224 22.2239 475 22.5 475H23C23.5523 475 24 474.552 24 474V470.5C24 470.224 24.2239 470 24.5 470Z" fill="#FAFAFA"/>
<path fill-rule="evenodd" clip-rule="evenodd" d="M15.5 470.5C15.7761 470.776 16.2239 470.776 16.5 470.5C16.7761 470.224 17.2239 470.224 17.5 470.5C17.7761 470.776 18.2239 470.776 18.5 470.5C18.6144 470.386 18.7998 470.386 18.9142 470.5C18.9691 470.555 19 470.629 19 470.707V471.5C19 471.776 18.7761 472 18.5 472H18.4142C18.149 472 17.8946 471.895 17.7071 471.707L17.5 471.5C17.2239 471.224 16.7761 471.224 16.5 471.5L16.2929 471.707C16.1054 471.895 15.851 472 15.5858 472H15.5C15.2239 472 15 471.776 15 471.5V470.707C15 470.545 15.1311 470.414 15.2929 470.414C15.3706 470.414 15.4451 470.445 15.5 470.5Z" fill="#FAFAFA"/>
<path d="M21 470.5C21 470.224 20.7761 470 20.5 470C20.2239 470 20 470.224 20 470.5V475.5C20 475.776 20.2239 476 20.5 476C20.7761 476 21 475.776 21 475.5V470.5Z" fill="#FAFAFA"/>
<path fill-rule="evenodd" clip-rule="evenodd" d="M13.5 475H14C14.5523 475 15 474.552 15 474C15 473.448 15.4477 473 16 473H18.5C18.7761 473 19 473.224 19 473.5C19 473.776 18.7761 474 18.5 474H16.5C16.2239 474 16 474.224 16 474.5C16 474.776 16.2239 475 16.5 475H17.5C17.7761 475 18 475.224 18 475.5C18 475.776 17.7761 476 17.5 476H13.5C13.2239 476 13 475.776 13 475.5C13 475.224 13.2239 475 13.5 475Z" fill="#FAFAFA"/>
<path fill-rule="evenodd" clip-rule="evenodd" d="M11.5 470C11.7761 470 12 470.224 12 470.5V472C12 472.552 12.4477 473 13 473H13.5C13.7761 473 14 473.224 14 473.5C14 473.776 13.7761 474 13.5 474H13C12.4477 474 12 474.448 12 475C12 475.552 11.5523 476 11 476H8.5C7.67157 476 7 475.328 7 474.5V473.5C7 473.224 7.22386 473 7.5 473C7.77614 473 8 473.224 8 473.5V474C8 474.552 8.44772 475 9 475H9.5C10.3284 475 11 474.328 11 473.5V470.5C11 470.224 11.2239 470 11.5 470Z" fill="#FAFAFA"/>
<path d="M26 488H6C4.89543 488 4 488.895 4 490V504C4 505.105 4.89543 506 6 506H26C27.1046 506 28 505.105 28 504V490C28 488.895 27.1046 488 26 488Z" fill="#E25950"/>
<path fill-rule="evenodd" clip-rule="evenodd" d="M15.943 499.94L12.7095 502.19C12.6642 502.221 12.6019 502.21 12.5703 502.165C12.5528 502.14 12.5478 502.108 12.5567 502.079L13.6974 498.308C13.7095 498.268 13.6954 498.225 13.6621 498.2L10.523 495.82C10.479 495.786 10.4704 495.724 10.5037 495.68C10.5222 495.655 10.5508 495.641 10.5814 495.64L14.5198 495.56C14.5616 495.559 14.5985 495.532 14.6122 495.493L15.9056 491.772C15.9238 491.72 15.9807 491.692 16.0329 491.71C16.0618 491.72 16.0845 491.743 16.0945 491.772L17.3879 495.493C17.4016 495.532 17.4385 495.559 17.4803 495.56L21.4188 495.64C21.474 495.641 21.5179 495.687 21.5167 495.742C21.5161 495.773 21.5015 495.801 21.4772 495.82L18.3381 498.2C18.3047 498.225 18.2907 498.268 18.3028 498.308L19.4435 502.079C19.4595 502.132 19.4296 502.187 19.3767 502.203C19.3475 502.212 19.3157 502.207 19.2906 502.19L16.0572 499.94C16.0229 499.916 15.9773 499.916 15.943 499.94Z" fill="#FCD669"/>
<path d="M26 510H6C4.89543 510 4 510.895 4 512V526C4 527.105 4.89543 528 6 528H26C27.1046 528 28 527.105 28 526V512C28 510.895 27.1046 510 26 510Z" fill="#43458B"/>
<path d="M28 517.5H4V520.5H28V517.5Z" fill="#FCD669"/>
<path d="M14 510H11V528H14V510Z" fill="#FCD669"/>
<path fill-rule="evenodd" clip-rule="evenodd" d="M6 532H12V550H6C4.89543 550 4 549.105 4 548V534C4 532.895 4.89543 532 6 532Z" fill="#333333"/>
<path fill-rule="evenodd" clip-rule="evenodd" d="M26 532H20V550H26C27.1046 550 28 549.105 28 548V534C28 532.895 27.1046 532 26 532Z" fill="#E25950"/>
<path d="M20 532H12V550H20V532Z" fill="#FCD669"/>
<path d="M6.08696 554.5H25.913C26.7826 554.5 27.5 555.217 27.5 556.118V569.882C27.5 570.783 26.7826 571.5 25.913 571.5H6.08696C5.21736 571.5 4.5 570.783 4.5 569.882V556.118C4.5 555.217 5.21736 554.5 6.08696 554.5Z" fill="#FAFAFA" stroke="#EAEDED"/>
<path fill-rule="evenodd" clip-rule="evenodd" d="M6 554H16V564H4V556C4 554.895 4.89543 554 6 554Z" fill="#555ABF"/>
<path fill-rule="evenodd" clip-rule="evenodd" d="M4 564H28V570C28 571.105 27.1046 572 26 572H6C4.89543 572 4 571.105 4 570V564Z" fill="#E25950"/>
<path fill-rule="evenodd" clip-rule="evenodd" d="M9.96197 560.626L7.80634 562.127C7.77612 562.148 7.73457 562.14 7.71354 562.11C7.70189 562.093 7.69855 562.072 7.70445 562.052L8.46493 559.539C8.473 559.512 8.46361 559.483 8.44139 559.466L6.34866 557.88C6.31932 557.858 6.31357 557.816 6.33581 557.786C6.34813 557.77 6.3672 557.76 6.38758 557.76L9.01321 557.707C9.04109 557.706 9.06567 557.688 9.07483 557.662L9.93708 555.181C9.94917 555.146 9.98716 555.128 10.0219 555.14C10.0412 555.147 10.0563 555.162 10.063 555.181L10.9253 557.662C10.9344 557.688 10.959 557.706 10.9869 557.707L13.6125 557.76C13.6493 557.761 13.6786 557.791 13.6778 557.828C13.6774 557.848 13.6677 557.867 13.6514 557.88L11.5587 559.466C11.5365 559.483 11.5271 559.512 11.5352 559.539L12.2957 562.052C12.3063 562.088 12.2864 562.125 12.2512 562.136C12.2316 562.142 12.2105 562.138 12.1938 562.127L10.0381 560.626C10.0152 560.611 9.98486 560.611 9.96197 560.626Z" fill="#FAFAFA"/>
<path d="M26 576H6C4.89543 576 4 576.895 4 578V592C4 593.105 4.89543 594 6 594H26C27.1046 594 28 593.105 28 592V578C28 576.895 27.1046 576 26 576Z" fill="#FCD669"/>
<path d="M28 584H4V589H28V584Z" fill="#43458B"/>
<path fill-rule="evenodd" clip-rule="evenodd" d="M4 589H28V592C28 593.105 27.1046 594 26 594H6C4.89543 594 4 593.105 4 592V589Z" fill="#E25950"/>
<path fill-rule="evenodd" clip-rule="evenodd" d="M4 610H28V614C28 615.105 27.1046 616 26 616H6C4.89543 616 4 615.105 4 614V610Z" fill="#333333"/>
<path fill-rule="evenodd" clip-rule="evenodd" d="M4 604H28V600C28 598.895 27.1046 598 26 598H6C4.89543 598 4 598.895 4 600V604Z" fill="#E25950"/>
<path d="M28 604H4V610H28V604Z" fill="#FAFAFA"/>
<path d="M28 604H27V610H28V604Z" fill="#EAEDED"/>
<path d="M5 604H4V610H5V604Z" fill="#EAEDED"/>
<path d="M16 607C16.5523 607 17 606.552 17 606C17 605.448 16.5523 605 16 605C15.4477 605 15 605.448 15 606C15 606.552 15.4477 607 16 607Z" fill="#FCD669"/>
<path fill-rule="evenodd" clip-rule="evenodd" d="M12 606H20C20 606.552 19.5523 607 19 607H13C12.4477 607 12 606.552 12 606Z" fill="#FCD669"/>
<path fill-rule="evenodd" clip-rule="evenodd" d="M12.8889 607H19.1111C19.1111 607.552 18.6634 608 18.1111 608H13.8889C13.3366 608 12.8889 607.552 12.8889 607Z" fill="#FCD669"/>
<path fill-rule="evenodd" clip-rule="evenodd" d="M14.2222 608H17.7777C17.7777 608.552 17.33 609 16.7777 609H15.2222C14.6699 609 14.2222 608.552 14.2222 608Z" fill="#FCD669"/>
<rect x="4.5" y="620.5" width="23" height="17" rx="1.5" fill="#FAFAFA" stroke="#EDEDED"/>
<path d="M10 638H26C27.1046 638 28 637.105 28 636V632.5H17.5L10 638Z" fill="#43458B"/>
<path d="M17.5 625.5H28V622C28 620.895 27.1046 620 26 620H10L17.5 625.5Z" fill="#E25950"/>
<path d="M4 635L12.5 629L4 623V635Z" fill="#FCD669"/>
<path d="M4 633L10 629L4 625V633Z" fill="#333333"/>
<path d="M6 638H7L16.5 631H28V627H16.5L7 620H6C4.89543 620 4 620.895 4 622V623L12.5 629L4 635V636C4 637.105 4.89543 638 6 638Z" fill="#24B47E"/>
<path fill-rule="evenodd" clip-rule="evenodd" d="M6 642H12V660H6C4.89543 660 4 659.105 4 658V644C4 642.895 4.89543 642 6 642Z" fill="#24B47E"/>
<path fill-rule="evenodd" clip-rule="evenodd" d="M26 642H20V660H26C27.1046 660 28 659.105 28 658V644C28 642.895 27.1046 642 26 642Z" fill="#F79A59"/>
<path d="M20 642H12V660H20V642Z" fill="#FAFAFA"/>
<path d="M20 642H12V643H20V642Z" fill="#EAEDED"/>
<path d="M20 659H12V660H20V659Z" fill="#EAEDED"/>
</svg>
