<?xml version="1.0" encoding="UTF-8"?>
<svg width="207px" height="585px" viewBox="0 0 207 585" version="1.1" xmlns="http://www.w3.org/2000/svg" xmlns:xlink="http://www.w3.org/1999/xlink">
    <title>spritesheet-icons-with-reverse-icons</title>
    <defs>
        <linearGradient x1="50%" y1="27.6487208%" x2="50%" y2="100%" id="linearGradient-1">
            <stop stop-color="#FFCE00" offset="0%"></stop>
            <stop stop-color="#FFA700" offset="100%"></stop>
        </linearGradient>
        <polygon id="path-2" points="-1.47104551e-15 -1.11022302e-16 37.6626799 -1.11022302e-16 37.6626799 8.42684238 -1.47104551e-15 8.42684238"></polygon>
        <polygon id="path-4" points="-1.47104551e-15 -1.11022302e-16 37.6626799 -1.11022302e-16 37.6626799 8.42684238 -1.47104551e-15 8.42684238"></polygon>
        <path d="M15.768,6.891 L9.518,14.391 C9.338,14.607 9.076,14.737 8.795,14.749 C8.78,14.75 8.765,14.75 8.75,14.75 C8.485,14.75 8.231,14.646 8.043,14.457 L4.293,10.707 C3.903,10.317 3.903,9.684 4.293,9.293 C4.684,8.903 5.317,8.903 5.707,9.293 L8.683,12.269 L14.232,5.61 C14.585,5.186 15.215,5.129 15.64,5.482 C16.064,5.835 16.122,6.466 15.768,6.891 M10,8.44105601e-16 C4.477,8.44105601e-16 8.44105601e-16,4.478 8.44105601e-16,10 C8.44105601e-16,15.523 4.477,20 10,20 C15.523,20 20,15.523 20,10 C20,4.478 15.523,8.44105601e-16 10,8.44105601e-16" id="path-6"></path>
    </defs>
    <g id="Page-1" stroke="none" stroke-width="1" fill="none" fill-rule="evenodd">
        <g id="spritesheet-icons._TTH_" transform="translate(1.000000, 0.050000)">
            <path d="M29.4949643,535.633018 C30.2223284,534.801745 31.4858537,534.71751 32.3171269,535.444874 C33.104649,536.133956 33.221699,537.304246 32.6133829,538.132332 L32.5052711,538.267037 L18.5052711,554.267037 C17.7046146,555.182073 16.2924429,555.169955 15.5036942,554.277218 L15.4001177,554.150027 L9.4001177,546.150027 C8.737376,545.266372 8.9164621,544.012769 9.8001177,543.350027 C10.6395905,542.720423 11.8129406,542.850568 12.4963951,543.62278 L12.6001177,543.750027 L17.1191177,549.775027 L29.4949643,535.633018 Z M21,524.95 C9.954,524.95 1,533.906 1,544.95 C1,555.996 9.954,564.95 21,564.95 C32.046,564.95 41,555.996 41,544.95 C41,533.906 32.046,524.95 21,524.95" id="circle-check-forest" fill="#538000" fill-rule="nonzero"></path>
            <polygon id="star-empty" stroke="#BA7A00" stroke-linejoin="round" points="72.999884 523.95 66.200762 537.118889 51 539.227778 61.999942 549.478889 59.40164 563.95 72.999884 557.118889 86.595813 563.95 83.997511 549.478889 94.997453 539.227778 79.796691 537.118889"></polygon>
            <polygon id="star-filled" stroke="#BA7A00" fill="url(#linearGradient-1)" fill-rule="nonzero" stroke-linejoin="round" points="124.611432 523.318694 131.499422 536.839852 146.854322 538.998156 135.744481 549.487914 138.37402 564.325692 124.61155 557.31992 110.846529 564.325798 113.476086 549.487914 102.366245 538.998156 117.721091 536.83986"></polygon>
            <g id="Group" transform="translate(156.000000, 529.950000)" fill="#232F3E" fill-rule="nonzero">
                <g id="globe">
                    <path d="M7,0 C8.74427273,0 10.3364545,0.642090909 11.5620909,1.69781818 L11.5620909,1.69781818 L11.6187273,1.74936364 C11.7841818,1.89509091 11.9426364,2.04781818 12.0934545,2.20818182 C12.1354545,2.25272727 12.1761818,2.29854545 12.2169091,2.34436364 C12.3416364,2.48372727 12.46,2.62818182 12.5732727,2.77709091 C12.6178182,2.83563636 12.663,2.89418182 12.7056364,2.954 C12.8125455,3.10354545 12.9111818,3.25881818 13.006,3.41727273 C13.0416364,3.47709091 13.0798182,3.53436364 13.1135455,3.59481818 C13.6760909,4.60281818 14,5.76290909 14,7 C14,8.15754545 13.7142727,9.24636364 13.2179091,10.2079091 C13.2166364,10.2104545 13.2153636,10.213 13.2140909,10.2155455 C13.146,10.3472727 13.0721818,10.4739091 12.9958182,10.6005455 C12.9684545,10.6457273 12.9417273,10.6909091 12.9137273,10.7354545 C12.8399091,10.8519091 12.7629091,10.9658182 12.6827273,11.0778182 C12.6477273,11.1268182 12.6108182,11.1739091 12.5745455,11.2222727 C12.4924545,11.3304545 12.4097273,11.438 12.3219091,11.5410909 C12.2907273,11.5773636 12.2576364,11.6110909 12.2258182,11.6467273 C12.0603636,11.8325455 11.886,12.0081818 11.7027273,12.1749091 C11.6441818,12.2283636 11.5875455,12.2830909 11.5270909,12.3346364 C11.4443636,12.4046364 11.3584545,12.4708182 11.2725455,12.537 C11.1955455,12.5968182 11.1179091,12.6553636 11.0383636,12.712 C10.955,12.7705455 10.871,12.8271818 10.7857273,12.8825455 C10.6921818,12.9423636 10.5973636,12.999 10.5012727,13.055 C10.4223636,13.1008182 10.3447273,13.1472727 10.2645455,13.1899091 C10.1188182,13.2669091 9.96990909,13.3381818 9.81845455,13.405 C9.76118182,13.4304545 9.70327273,13.4552727 9.64472727,13.4794545 C9.48054545,13.5469091 9.31381818,13.608 9.14390909,13.6627273 C9.07518182,13.685 9.00518182,13.7034545 8.93518182,13.7231818 C8.79963636,13.762 8.66281818,13.7976364 8.52409091,13.8288182 C8.449,13.8453636 8.37390909,13.8612727 8.29754545,13.8752727 C8.15309091,13.902 8.00672727,13.9236364 7.85909091,13.9420909 C7.791,13.9503636 7.72290909,13.9605455 7.65418182,13.9669091 C7.43845455,13.9872727 7.22081818,14 7,14 C3.13409091,14 0,10.8659091 0,7 C0,6.77536364 0.0127272727,6.55390909 0.0337272727,6.335 C0.0407272727,6.26118182 0.0528181818,6.18990909 0.0617272727,6.11736364 C0.0795454545,5.97227273 0.0999090909,5.82845455 0.127272727,5.68654545 C0.143181818,5.60190909 0.162909091,5.51918182 0.182,5.43581818 C0.210636364,5.30854545 0.242454545,5.18318182 0.278727273,5.05909091 C0.303545455,4.97190909 0.329636364,4.88536364 0.358272727,4.79945455 C0.396454545,4.68363636 0.439090909,4.57036364 0.483636364,4.45709091 C0.517363636,4.36990909 0.550454545,4.28209091 0.588,4.19618182 C0.634454545,4.09054545 0.686,3.98872727 0.737545455,3.88627273 C0.929090909,3.50127273 1.155,3.13790909 1.41145455,2.79745455 C1.44772727,2.74972727 1.48209091,2.70009091 1.51963636,2.653 C1.60936364,2.53972727 1.70418182,2.43218182 1.80090909,2.32463636 C1.83654545,2.28518182 1.87218182,2.24445455 1.90909091,2.20563636 C2.01345455,2.09490909 2.12163636,1.988 2.233,1.88427273 C2.261,1.85818182 2.28963636,1.83209091 2.31827273,1.80663636 C2.44236364,1.69463636 2.56963636,1.58645455 2.70136364,1.48336364 L2.70136364,1.48336364 L2.71154545,1.47572727 C3.89709091,0.554272727 5.38236364,0 7,0 Z M7,0.636363636 C6.42663636,0.636363636 5.87427273,0.719727273 5.34545455,0.862272727 L5.34545455,0.862272727 L4.86054545,1.09709091 C3.76345455,1.62781818 2.83754545,2.45572727 2.18781818,3.486 L2.18781818,3.486 L2.09554545,3.63172727 C1.97590909,3.75072727 1.90909091,3.913 1.90909091,4.08163636 L1.90909091,4.08163636 L1.90909091,4.75045455 C1.90909091,4.963 2.01536364,5.16154545 2.19227273,5.27990909 L2.19227273,5.27990909 L3.78572727,6.342 C3.80736364,6.35663636 3.83027273,6.36936364 3.85381818,6.38145455 L3.85381818,6.38145455 L4.99863636,6.95418182 C5.05972727,6.98472727 5.11572727,7.02481818 5.16409091,7.07318182 L5.16409091,7.07318182 L5.27736364,7.18645455 C5.52618182,7.43463636 5.52618182,7.83745455 5.27736364,8.08627273 C5.15772727,8.20527273 5.09090909,8.36754545 5.09090909,8.53618182 L5.09090909,8.53618182 L5.09090909,9.78854545 C5.09090909,10.0297273 5.22709091,10.2499091 5.44281818,10.3580909 L5.44281818,10.3580909 L6.01172727,10.6425455 C6.22745455,10.7500909 6.36363636,10.9702727 6.36363636,11.2114545 L6.36363636,11.2114545 L6.36363636,12.4638182 C6.36363636,12.6324545 6.43045455,12.7940909 6.55009091,12.9137273 L6.55009091,12.9137273 L7,13.3636364 C7.22018182,13.3636364 7.43845455,13.3521818 7.65354545,13.3299091 L7.65354545,13.3299091 L8.86327273,10.9104545 C8.89381818,10.8493636 8.93390909,10.7933636 8.98227273,10.745 L8.98227273,10.745 L10.1818182,9.54545455 L10.1818182,8.97527273 L7.80818182,7.13363636 C7.69681818,7.04709091 7.55936364,7 7.41809091,7 L7.41809091,7 L5.99072727,7 C5.82209091,7 5.66045455,6.93318182 5.54081818,6.81354545 L5.54081818,6.81354545 L4.45454545,5.72727273 L3.81818182,5.72727273 L3.81818182,5.09090909 L4.522,4.739 C4.83636364,4.58181818 5.21818182,4.70909091 5.37536364,5.02345455 L5.37536364,5.02345455 L5.72727273,5.72727273 L5.72727273,4.718 C5.72727273,4.54936364 5.79409091,4.38772727 5.91372727,4.26809091 L5.91372727,4.26809091 L6.81354545,3.36827273 C6.93254545,3.24863636 7.09481818,3.18181818 7.26345455,3.18181818 L7.26345455,3.18181818 L8.27272727,3.18181818 L8.27272727,2.54545455 L8.72263636,2.09554545 C8.84227273,1.97654545 8.90909091,1.81427273 8.90909091,1.64563636 L8.90909091,1.64563636 L8.90909091,0.929727273 C8.30581818,0.739454545 7.665,0.636363636 7,0.636363636 Z M12.922,4.68745455 C12.411,5.19972727 12.0909091,5.89909091 12.0909091,6.68181818 C12.0909091,7.54790909 12.4822727,8.31345455 13.0912727,8.83463636 C13.2669091,8.25363636 13.3636364,7.81645455 13.3636364,7 C13.3636364,6.18354545 13.2032727,5.40527273 12.922,4.68745455 Z" id="Combined-Shape"></path>
                </g>
            </g>
            <g id="Combined-Shape" transform="translate(157.000000, 549.950000)" fill="#232F3E" fill-rule="nonzero">
                <path d="M6,0 C8.209139,0 10,1.790861 10,4 L10,6 L11,6 C11.5522847,6 12,6.44771525 12,7 L12,13 C12,13.5522847 11.5522847,14 11,14 L1,14 C0.44771525,14 0,13.5522847 0,13 L0,7 C0,6.44771525 0.44771525,6 1,6 L2,6 L2,4 C2,1.790861 3.790861,0 6,0 Z M6,9 C5.44771525,9 5,9.4477153 5,10 C5,10.5522847 5.44771525,11 6,11 C6.55228475,11 7,10.5522847 7,10 C7,9.4477153 6.55228475,9 6,9 Z M6,2 C4.9456382,2 4.08183488,2.81587779 4.00548574,3.85073766 L4,4 L4,6 L8,6 L8,4 C8,2.8954305 7.1045695,2 6,2 Z" id="Shape"></path>
            </g>
            <g id="Star" transform="translate(156.678842, 570.804699)" fill="#232F3E" fill-rule="nonzero">
                <path d="M6.01560674,10.9227204 L3.13320042,12.5160754 C2.82792619,12.6848269 2.44365245,12.5741533 2.27490101,12.2688791 C2.20636404,12.1448945 2.18150126,12.0014678 2.20430837,11.8616489 L2.76984201,8.39464761 C2.80211426,8.19680281 2.7385488,7.99538534 2.59855759,7.85190522 L0.179523136,5.37258273 C-0.0640696536,5.12291903 -0.0591482036,4.72305565 0.190515486,4.47946286 C0.284923876,4.38735014 0.405802276,4.32710651 0.536189526,4.30718511 L3.82489308,3.80471592 C4.03309709,3.77290518 4.21174296,3.63940032 4.30123487,3.44873823 L5.74942674,0.363372459 C5.89763576,0.0476138492 6.27375583,-0.0882119208 6.58951443,0.0599970992 C6.72294141,0.122624319 6.83026257,0.229945479 6.89288978,0.363372459 L8.34108166,3.44873823 C8.43057356,3.63940032 8.60921946,3.77290518 8.81742346,3.80471592 L12.106127,4.30718511 C12.4509371,4.3598674 12.6877535,4.68209862 12.6350712,5.02690869 C12.6151498,5.15729594 12.5549061,5.27817434 12.4627934,5.37258273 L10.043759,7.85190522 C9.90376776,7.99538534 9.84020226,8.19680281 9.87247446,8.39464761 L10.4380082,11.8616489 C10.4941638,12.2059104 10.2606078,12.5305125 9.91634626,12.5866681 C9.77652736,12.6094752 9.63310066,12.5846124 9.50911606,12.5160754 L6.62670978,10.9227204 C6.43656749,10.8176124 6.20574903,10.8176124 6.01560674,10.9227204 Z" id="Path"></path>
            </g>
            <g id="Combined-Shape" transform="translate(177.000000, 549.950000)" fill="#FAFAFA" fill-rule="nonzero">
                <path d="M6,0 C8.209139,0 10,1.790861 10,4 L10,6 L11,6 C11.5522847,6 12,6.44771525 12,7 L12,13 C12,13.5522847 11.5522847,14 11,14 L1,14 C0.44771525,14 0,13.5522847 0,13 L0,7 C0,6.44771525 0.44771525,6 1,6 L2,6 L2,4 C2,1.790861 3.790861,0 6,0 Z M6,9 C5.44771525,9 5,9.4477153 5,10 C5,10.5522847 5.44771525,11 6,11 C6.55228475,11 7,10.5522847 7,10 C7,9.4477153 6.55228475,9 6,9 Z M6,2 C4.9456382,2 4.08183488,2.81587779 4.00548574,3.85073766 L4,4 L4,6 L8,6 L8,4 C8,2.8954305 7.1045695,2 6,2 Z" id="Shape"></path>
            </g>
            <g id="Group" transform="translate(176.000000, 529.950000)" fill="#FAFAFA" fill-rule="nonzero">
                <g id="globe">
                    <path d="M7,0 C8.74427273,0 10.3364545,0.642090909 11.5620909,1.69781818 L11.5620909,1.69781818 L11.6187273,1.74936364 C11.7841818,1.89509091 11.9426364,2.04781818 12.0934545,2.20818182 C12.1354545,2.25272727 12.1761818,2.29854545 12.2169091,2.34436364 C12.3416364,2.48372727 12.46,2.62818182 12.5732727,2.77709091 C12.6178182,2.83563636 12.663,2.89418182 12.7056364,2.954 C12.8125455,3.10354545 12.9111818,3.25881818 13.006,3.41727273 C13.0416364,3.47709091 13.0798182,3.53436364 13.1135455,3.59481818 C13.6760909,4.60281818 14,5.76290909 14,7 C14,8.15754545 13.7142727,9.24636364 13.2179091,10.2079091 C13.2166364,10.2104545 13.2153636,10.213 13.2140909,10.2155455 C13.146,10.3472727 13.0721818,10.4739091 12.9958182,10.6005455 C12.9684545,10.6457273 12.9417273,10.6909091 12.9137273,10.7354545 C12.8399091,10.8519091 12.7629091,10.9658182 12.6827273,11.0778182 C12.6477273,11.1268182 12.6108182,11.1739091 12.5745455,11.2222727 C12.4924545,11.3304545 12.4097273,11.438 12.3219091,11.5410909 C12.2907273,11.5773636 12.2576364,11.6110909 12.2258182,11.6467273 C12.0603636,11.8325455 11.886,12.0081818 11.7027273,12.1749091 C11.6441818,12.2283636 11.5875455,12.2830909 11.5270909,12.3346364 C11.4443636,12.4046364 11.3584545,12.4708182 11.2725455,12.537 C11.1955455,12.5968182 11.1179091,12.6553636 11.0383636,12.712 C10.955,12.7705455 10.871,12.8271818 10.7857273,12.8825455 C10.6921818,12.9423636 10.5973636,12.999 10.5012727,13.055 C10.4223636,13.1008182 10.3447273,13.1472727 10.2645455,13.1899091 C10.1188182,13.2669091 9.96990909,13.3381818 9.81845455,13.405 C9.76118182,13.4304545 9.70327273,13.4552727 9.64472727,13.4794545 C9.48054545,13.5469091 9.31381818,13.608 9.14390909,13.6627273 C9.07518182,13.685 9.00518182,13.7034545 8.93518182,13.7231818 C8.79963636,13.762 8.66281818,13.7976364 8.52409091,13.8288182 C8.449,13.8453636 8.37390909,13.8612727 8.29754545,13.8752727 C8.15309091,13.902 8.00672727,13.9236364 7.85909091,13.9420909 C7.791,13.9503636 7.72290909,13.9605455 7.65418182,13.9669091 C7.43845455,13.9872727 7.22081818,14 7,14 C3.13409091,14 0,10.8659091 0,7 C0,6.77536364 0.0127272727,6.55390909 0.0337272727,6.335 C0.0407272727,6.26118182 0.0528181818,6.18990909 0.0617272727,6.11736364 C0.0795454545,5.97227273 0.0999090909,5.82845455 0.127272727,5.68654545 C0.143181818,5.60190909 0.162909091,5.51918182 0.182,5.43581818 C0.210636364,5.30854545 0.242454545,5.18318182 0.278727273,5.05909091 C0.303545455,4.97190909 0.329636364,4.88536364 0.358272727,4.79945455 C0.396454545,4.68363636 0.439090909,4.57036364 0.483636364,4.45709091 C0.517363636,4.36990909 0.550454545,4.28209091 0.588,4.19618182 C0.634454545,4.09054545 0.686,3.98872727 0.737545455,3.88627273 C0.929090909,3.50127273 1.155,3.13790909 1.41145455,2.79745455 C1.44772727,2.74972727 1.48209091,2.70009091 1.51963636,2.653 C1.60936364,2.53972727 1.70418182,2.43218182 1.80090909,2.32463636 C1.83654545,2.28518182 1.87218182,2.24445455 1.90909091,2.20563636 C2.01345455,2.09490909 2.12163636,1.988 2.233,1.88427273 C2.261,1.85818182 2.28963636,1.83209091 2.31827273,1.80663636 C2.44236364,1.69463636 2.56963636,1.58645455 2.70136364,1.48336364 L2.70136364,1.48336364 L2.71154545,1.47572727 C3.89709091,0.554272727 5.38236364,0 7,0 Z M7,0.636363636 C6.42663636,0.636363636 5.87427273,0.719727273 5.34545455,0.862272727 L5.34545455,0.862272727 L4.86054545,1.09709091 C3.76345455,1.62781818 2.83754545,2.45572727 2.18781818,3.486 L2.18781818,3.486 L2.09554545,3.63172727 C1.97590909,3.75072727 1.90909091,3.913 1.90909091,4.08163636 L1.90909091,4.08163636 L1.90909091,4.75045455 C1.90909091,4.963 2.01536364,5.16154545 2.19227273,5.27990909 L2.19227273,5.27990909 L3.78572727,6.342 C3.80736364,6.35663636 3.83027273,6.36936364 3.85381818,6.38145455 L3.85381818,6.38145455 L4.99863636,6.95418182 C5.05972727,6.98472727 5.11572727,7.02481818 5.16409091,7.07318182 L5.16409091,7.07318182 L5.27736364,7.18645455 C5.52618182,7.43463636 5.52618182,7.83745455 5.27736364,8.08627273 C5.15772727,8.20527273 5.09090909,8.36754545 5.09090909,8.53618182 L5.09090909,8.53618182 L5.09090909,9.78854545 C5.09090909,10.0297273 5.22709091,10.2499091 5.44281818,10.3580909 L5.44281818,10.3580909 L6.01172727,10.6425455 C6.22745455,10.7500909 6.36363636,10.9702727 6.36363636,11.2114545 L6.36363636,11.2114545 L6.36363636,12.4638182 C6.36363636,12.6324545 6.43045455,12.7940909 6.55009091,12.9137273 L6.55009091,12.9137273 L7,13.3636364 C7.22018182,13.3636364 7.43845455,13.3521818 7.65354545,13.3299091 L7.65354545,13.3299091 L8.86327273,10.9104545 C8.89381818,10.8493636 8.93390909,10.7933636 8.98227273,10.745 L8.98227273,10.745 L10.1818182,9.54545455 L10.1818182,8.97527273 L7.80818182,7.13363636 C7.69681818,7.04709091 7.55936364,7 7.41809091,7 L7.41809091,7 L5.99072727,7 C5.82209091,7 5.66045455,6.93318182 5.54081818,6.81354545 L5.54081818,6.81354545 L4.45454545,5.72727273 L3.81818182,5.72727273 L3.81818182,5.09090909 L4.522,4.739 C4.83636364,4.58181818 5.21818182,4.70909091 5.37536364,5.02345455 L5.37536364,5.02345455 L5.72727273,5.72727273 L5.72727273,4.718 C5.72727273,4.54936364 5.79409091,4.38772727 5.91372727,4.26809091 L5.91372727,4.26809091 L6.81354545,3.36827273 C6.93254545,3.24863636 7.09481818,3.18181818 7.26345455,3.18181818 L7.26345455,3.18181818 L8.27272727,3.18181818 L8.27272727,2.54545455 L8.72263636,2.09554545 C8.84227273,1.97654545 8.90909091,1.81427273 8.90909091,1.64563636 L8.90909091,1.64563636 L8.90909091,0.929727273 C8.30581818,0.739454545 7.665,0.636363636 7,0.636363636 Z M12.922,4.68745455 C12.411,5.19972727 12.0909091,5.89909091 12.0909091,6.68181818 C12.0909091,7.54790909 12.4822727,8.31345455 13.0912727,8.83463636 C13.2669091,8.25363636 13.3636364,7.81645455 13.3636364,7 C13.3636364,6.18354545 13.2032727,5.40527273 12.922,4.68745455 Z" id="Combined-Shape"></path>
                </g>
            </g>
            <g id="Star" transform="translate(176.678842, 570.804699)" fill="#FAFAFA" fill-rule="nonzero">
                <path d="M6.01560674,10.9227204 L3.13320042,12.5160754 C2.82792619,12.6848269 2.44365245,12.5741533 2.27490101,12.2688791 C2.20636404,12.1448945 2.18150126,12.0014678 2.20430837,11.8616489 L2.76984201,8.39464761 C2.80211426,8.19680281 2.7385488,7.99538534 2.59855759,7.85190522 L0.179523136,5.37258273 C-0.0640696536,5.12291903 -0.0591482036,4.72305565 0.190515486,4.47946286 C0.284923876,4.38735014 0.405802276,4.32710651 0.536189526,4.30718511 L3.82489308,3.80471592 C4.03309709,3.77290518 4.21174296,3.63940032 4.30123487,3.44873823 L5.74942674,0.363372459 C5.89763576,0.0476138492 6.27375583,-0.0882119208 6.58951443,0.0599970992 C6.72294141,0.122624319 6.83026257,0.229945479 6.89288978,0.363372459 L8.34108166,3.44873823 C8.43057356,3.63940032 8.60921946,3.77290518 8.81742346,3.80471592 L12.106127,4.30718511 C12.4509371,4.3598674 12.6877535,4.68209862 12.6350712,5.02690869 C12.6151498,5.15729594 12.5549061,5.27817434 12.4627934,5.37258273 L10.043759,7.85190522 C9.90376776,7.99538534 9.84020226,8.19680281 9.87247446,8.39464761 L10.4380082,11.8616489 C10.4941638,12.2059104 10.2606078,12.5305125 9.91634626,12.5866681 C9.77652736,12.6094752 9.63310066,12.5846124 9.50911606,12.5160754 L6.62670978,10.9227204 C6.43656749,10.8176124 6.20574903,10.8176124 6.01560674,10.9227204 Z" id="Path"></path>
            </g>
            <g id="Left" transform="translate(82.000000, 243.950000)" stroke="#636D6E" stroke-width="2">
                <circle id="Oval" cx="15.5" cy="15.5" r="15.5"></circle>
                <polyline id="Path" stroke-linecap="round" stroke-linejoin="round" transform="translate(14.500000, 15.500000) scale(-1, 1) translate(-14.500000, -15.500000) " points="11 8 18 15.5 11 23"></polyline>
            </g>
            <g id="Left" transform="translate(135.500000, 259.450000) rotate(-180.000000) translate(-135.500000, -259.450000) translate(120.000000, 243.950000)" stroke="#636D6E" stroke-width="2">
                <circle id="Oval" cx="15.5" cy="15.5" r="15.5"></circle>
                <polyline id="Path" stroke-linecap="round" stroke-linejoin="round" transform="translate(14.500000, 15.500000) scale(-1, 1) translate(-14.500000, -15.500000) " points="11 8 18 15.5 11 23"></polyline>
            </g>
            <g id="icon-arrow-download-white" transform="translate(58.000000, 41.950000)" fill="#FFFFFF" fill-rule="nonzero">
                <path d="M14.386294,7.489799 L8.70132976,13.0829917 C8.31216348,13.4658757 7.68783652,13.4658757 7.29867024,13.0829917 L1.62396623,7.49989363 C1.29074306,7.17204964 1.28638238,6.63614882 1.61422637,6.30292565 C1.62087223,6.29617075 1.62763106,6.28952793 1.6345,6.283 C1.99196255,5.94328381 2.5512291,5.93771078 2.91539047,6.27023606 L7,10 L7,1 C7,0.44771525 7.44771525,0 8,0 C8.55228475,0 9,0.44771525 9,1 L9,10 L13.1338176,6.25686803 C13.4921246,5.93242444 14.0412701,5.94366536 14.386,6.2825 C14.7194663,6.61026366 14.7240891,7.14629642 14.3963255,7.47976268 C14.3930098,7.48313608 14.3896658,7.48648164 14.386294,7.489799 Z M1,16 L15,16 C15.5522847,16 16,16.4477153 16,17 C16,17.5522847 15.5522847,18 15,18 L1,18 C0.44771525,18 0,17.5522847 0,17 C0,16.4477153 0.44771525,16 1,16 Z" id="Shape"></path>
            </g>
            <g id="icon-arrow-right-white" transform="translate(38.000000, 27.309673)" fill="#FFFFFF" fill-rule="nonzero">
                <path d="M7.614,0.254327127 L13.2928932,5.93322035 C13.6834175,6.32374464 13.6834175,6.95690962 13.2928932,7.34743391 L7.62433415,13.015993 C7.28513912,13.355188 6.73519533,13.355188 6.3960003,13.015993 C6.39263911,13.0126318 6.38930556,13.009243 6.386,13.0058271 C6.04171694,12.6500492 6.0359156,12.0871057 6.37279348,11.7243082 L10.165,7.64032713 L1,7.64032713 C0.44771525,7.64032713 0,7.19261188 0,6.64032713 C0,6.08804238 0.44771525,5.64032713 1,5.64032713 L10.165,5.64032713 L6.36010664,1.50717185 C6.03144613,1.15015661 6.04286911,0.597458016 6.386,0.254327127 C6.72510284,-0.084775709 7.27489716,-0.084775709 7.614,0.254327127 Z" id="Path"></path>
            </g>
            <g id="icon-arrow-down-white" transform="translate(38.369938, 11.950000)" fill="#FFFFFF" fill-rule="nonzero">
                <path d="M13.0160621,7.614 L7.3371689,13.2928932 C6.94664461,13.6834175 6.31347963,13.6834175 5.92295534,13.2928932 L0.254396268,7.62433415 C-0.084798756,7.28513912 -0.084798756,6.73519533 0.254396268,6.3960003 C0.257757465,6.39263911 0.261146197,6.38930556 0.264562123,6.386 C0.62033998,6.04171694 1.18328354,6.0359156 1.54608101,6.37279348 L5.63006212,10.165 L5.63006212,1 C5.63006212,0.44771525 6.07777737,0 6.63006212,0 C7.18234687,0 7.63006212,0.44771525 7.63006212,1 L7.63006212,10.165 L11.7632174,6.36010664 C12.1202326,6.03144613 12.6729312,6.04286911 13.0160621,6.386 C13.3551649,6.72510284 13.3551649,7.27489716 13.0160621,7.614 Z" id="Path"></path>
            </g>
            <g id="icon-arrow-up-white" transform="translate(132.005132, 7.157107) scale(-1, 1) rotate(-180.000000) translate(-132.005132, -7.157107) translate(125.369938, 0.364214)" fill="#FFFFFF" fill-rule="nonzero">
                <path d="M13.0160621,7.614 L7.3371689,13.2928932 C6.94664461,13.6834175 6.31347963,13.6834175 5.92295534,13.2928932 L0.254396268,7.62433415 C-0.084798756,7.28513912 -0.084798756,6.73519533 0.254396268,6.3960003 C0.257757465,6.39263911 0.261146197,6.38930556 0.264562123,6.386 C0.62033998,6.04171694 1.18328354,6.0359156 1.54608101,6.37279348 L5.63006212,10.165 L5.63006212,1 C5.63006212,0.44771525 6.07777737,0 6.63006212,0 C7.18234687,0 7.63006212,0.44771525 7.63006212,1 L7.63006212,10.165 L11.7632174,6.36010664 C12.1202326,6.03144613 12.6729312,6.04286911 13.0160621,6.386 C13.3551649,6.72510284 13.3551649,7.27489716 13.0160621,7.614 Z" id="Path"></path>
            </g>
            <g id="icon-arrow-angled-white" transform="translate(38.757151, -0.000000)" fill="#FFFFFF" fill-rule="nonzero">
                <path d="M1.16084913,1.80411242e-16 L9.19284899,1.80411242e-16 C9.74513369,1.80411242e-16 10.192849,0.44771525 10.192849,1 L10.192849,9.01737253 C10.192849,9.49661916 9.80434279,9.88512532 9.32509619,9.88512532 C9.32018019,9.88512532 9.31526429,9.88508355 9.31034899,9.885 C8.81541148,9.87658746 8.41343595,9.48264959 8.39502975,8.98798291 L8.18784899,3.42 L1.70689817,9.90004918 C1.31639773,10.2904953 0.683322259,10.2904733 0.292848989,9.9 C-0.0976163295,9.50953468 -0.0976163295,8.87646532 0.292848989,8.486 L6.77384899,2.005 L1.1611022,1.77200171 C0.676342739,1.75187821 0.293628469,1.35317688 0.293348989,0.868 C0.293073009,0.3888929 0.681242319,0.0002761273 1.16034942,1.80411242e-16 C1.16051599,1.80411242e-16 1.16068256,1.80411242e-16 1.16084913,1.80411242e-16 Z" id="Path"></path>
            </g>
            <g id="icon-arrow-angled-black" transform="translate(0.757151, -0.000000)" fill="#232F3E" fill-rule="nonzero">
                <path d="M1.16084913,1.80411242e-16 L9.19284899,1.80411242e-16 C9.74513369,1.80411242e-16 10.192849,0.44771525 10.192849,1 L10.192849,9.01737253 C10.192849,9.49661916 9.80434279,9.88512532 9.32509619,9.88512532 C9.32018019,9.88512532 9.31526429,9.88508355 9.31034899,9.885 C8.81541148,9.87658746 8.41343595,9.48264959 8.39502975,8.98798291 L8.18784899,3.42 L1.70689817,9.90004918 C1.31639773,10.2904953 0.683322259,10.2904733 0.292848989,9.9 C-0.0976163295,9.50953468 -0.0976163295,8.87646532 0.292848989,8.486 L6.77384899,2.005 L1.1611022,1.77200171 C0.676342739,1.75187821 0.293628469,1.35317688 0.293348989,0.868 C0.293073009,0.3888929 0.681242319,0.0002761273 1.16034942,1.80411242e-16 C1.16051599,1.80411242e-16 1.16068256,1.80411242e-16 1.16084913,1.80411242e-16 Z" id="Path"></path>
            </g>
            <g id="icon-arrow-angled-blue" transform="translate(19.757151, -0.000000)" fill="#0099D9" fill-rule="nonzero">
                <path d="M1.16084913,1.80411242e-16 L9.19284899,1.80411242e-16 C9.74513369,1.80411242e-16 10.192849,0.44771525 10.192849,1 L10.192849,9.01737253 C10.192849,9.49661916 9.80434279,9.88512532 9.32509619,9.88512532 C9.32018019,9.88512532 9.31526429,9.88508355 9.31034899,9.885 C8.81541148,9.87658746 8.41343595,9.48264959 8.39502975,8.98798291 L8.18784899,3.42 L1.70689817,9.90004918 C1.31639773,10.2904953 0.683322259,10.2904733 0.292848989,9.9 C-0.0976163295,9.50953468 -0.0976163295,8.87646532 0.292848989,8.486 L6.77384899,2.005 L1.1611022,1.77200171 C0.676342739,1.75187821 0.293628469,1.35317688 0.293348989,0.868 C0.293073009,0.3888929 0.681242319,0.0002761273 1.16034942,1.80411242e-16 C1.16051599,1.80411242e-16 1.16068256,1.80411242e-16 1.16084913,1.80411242e-16 Z" id="Path"></path>
            </g>
            <g id="icon-arrow-down-black" transform="translate(0.369938, 11.950000)" fill="#232F3E" fill-rule="nonzero">
                <path d="M13.0160621,7.614 L7.3371689,13.2928932 C6.94664461,13.6834175 6.31347963,13.6834175 5.92295534,13.2928932 L0.254396268,7.62433415 C-0.084798756,7.28513912 -0.084798756,6.73519533 0.254396268,6.3960003 C0.257757465,6.39263911 0.261146197,6.38930556 0.264562123,6.386 C0.62033998,6.04171694 1.18328354,6.0359156 1.54608101,6.37279348 L5.63006212,10.165 L5.63006212,1 C5.63006212,0.44771525 6.07777737,0 6.63006212,0 C7.18234687,0 7.63006212,0.44771525 7.63006212,1 L7.63006212,10.165 L11.7632174,6.36010664 C12.1202326,6.03144613 12.6729312,6.04286911 13.0160621,6.386 C13.3551649,6.72510284 13.3551649,7.27489716 13.0160621,7.614 Z" id="Path"></path>
            </g>
            <g id="icon-arrow-up-black" transform="translate(94.005132, 7.157107) scale(-1, 1) rotate(-180.000000) translate(-94.005132, -7.157107) translate(87.369938, 0.364214)" fill="#232F3E" fill-rule="nonzero">
                <path d="M13.0160621,7.614 L7.3371689,13.2928932 C6.94664461,13.6834175 6.31347963,13.6834175 5.92295534,13.2928932 L0.254396268,7.62433415 C-0.084798756,7.28513912 -0.084798756,6.73519533 0.254396268,6.3960003 C0.257757465,6.39263911 0.261146197,6.38930556 0.264562123,6.386 C0.62033998,6.04171694 1.18328354,6.0359156 1.54608101,6.37279348 L5.63006212,10.165 L5.63006212,1 C5.63006212,0.44771525 6.07777737,0 6.63006212,0 C7.18234687,0 7.63006212,0.44771525 7.63006212,1 L7.63006212,10.165 L11.7632174,6.36010664 C12.1202326,6.03144613 12.6729312,6.04286911 13.0160621,6.386 C13.3551649,6.72510284 13.3551649,7.27489716 13.0160621,7.614 Z" id="Path"></path>
            </g>
            <g id="icon-arrow-down-blue" transform="translate(19.369938, 11.950000)" fill="#0099D9" fill-rule="nonzero">
                <path d="M13.0160621,7.614 L7.3371689,13.2928932 C6.94664461,13.6834175 6.31347963,13.6834175 5.92295534,13.2928932 L0.254396268,7.62433415 C-0.084798756,7.28513912 -0.084798756,6.73519533 0.254396268,6.3960003 C0.257757465,6.39263911 0.261146197,6.38930556 0.264562123,6.386 C0.62033998,6.04171694 1.18328354,6.0359156 1.54608101,6.37279348 L5.63006212,10.165 L5.63006212,1 C5.63006212,0.44771525 6.07777737,0 6.63006212,0 C7.18234687,0 7.63006212,0.44771525 7.63006212,1 L7.63006212,10.165 L11.7632174,6.36010664 C12.1202326,6.03144613 12.6729312,6.04286911 13.0160621,6.386 C13.3551649,6.72510284 13.3551649,7.27489716 13.0160621,7.614 Z" id="Path"></path>
            </g>
            <g id="icon-arrow-up-blue" transform="translate(113.005132, 7.157107) scale(-1, 1) rotate(-180.000000) translate(-113.005132, -7.157107) translate(106.369938, 0.364214)" fill="#0099D9" fill-rule="nonzero">
                <path d="M13.0160621,7.614 L7.3371689,13.2928932 C6.94664461,13.6834175 6.31347963,13.6834175 5.92295534,13.2928932 L0.254396268,7.62433415 C-0.084798756,7.28513912 -0.084798756,6.73519533 0.254396268,6.3960003 C0.257757465,6.39263911 0.261146197,6.38930556 0.264562123,6.386 C0.62033998,6.04171694 1.18328354,6.0359156 1.54608101,6.37279348 L5.63006212,10.165 L5.63006212,1 C5.63006212,0.44771525 6.07777737,0 6.63006212,0 C7.18234687,0 7.63006212,0.44771525 7.63006212,1 L7.63006212,10.165 L11.7632174,6.36010664 C12.1202326,6.03144613 12.6729312,6.04286911 13.0160621,6.386 C13.3551649,6.72510284 13.3551649,7.27489716 13.0160621,7.614 Z" id="Path"></path>
            </g>
            <g id="icon-arrow-download-black" transform="translate(1.000000, 41.950000)" fill="#232F3E" fill-rule="nonzero">
                <path d="M14.386294,7.489799 L8.70132976,13.0829917 C8.31216348,13.4658757 7.68783652,13.4658757 7.29867024,13.0829917 L1.62396623,7.49989363 C1.29074306,7.17204964 1.28638238,6.63614882 1.61422637,6.30292565 C1.62087223,6.29617075 1.62763106,6.28952793 1.6345,6.283 C1.99196255,5.94328381 2.5512291,5.93771078 2.91539047,6.27023606 L7,10 L7,1 C7,0.44771525 7.44771525,0 8,0 C8.55228475,0 9,0.44771525 9,1 L9,10 L13.1338176,6.25686803 C13.4921246,5.93242444 14.0412701,5.94366536 14.386,6.2825 C14.7194663,6.61026366 14.7240891,7.14629642 14.3963255,7.47976268 C14.3930098,7.48313608 14.3896658,7.48648164 14.386294,7.489799 Z M1,16 L15,16 C15.5522847,16 16,16.4477153 16,17 C16,17.5522847 15.5522847,18 15,18 L1,18 C0.44771525,18 0,17.5522847 0,17 C0,16.4477153 0.44771525,16 1,16 Z" id="Shape"></path>
            </g>
            <g id="icon-arrow-download-blue" transform="translate(39.000000, 41.950000)" fill="#0099D9" fill-rule="nonzero">
                <path d="M14.386294,7.489799 L8.70132976,13.0829917 C8.31216348,13.4658757 7.68783652,13.4658757 7.29867024,13.0829917 L1.62396623,7.49989363 C1.29074306,7.17204964 1.28638238,6.63614882 1.61422637,6.30292565 C1.62087223,6.29617075 1.62763106,6.28952793 1.6345,6.283 C1.99196255,5.94328381 2.5512291,5.93771078 2.91539047,6.27023606 L7,10 L7,1 C7,0.44771525 7.44771525,0 8,0 C8.55228475,0 9,0.44771525 9,1 L9,10 L13.1338176,6.25686803 C13.4921246,5.93242444 14.0412701,5.94366536 14.386,6.2825 C14.7194663,6.61026366 14.7240891,7.14629642 14.3963255,7.47976268 C14.3930098,7.48313608 14.3896658,7.48648164 14.386294,7.489799 Z M1,16 L15,16 C15.5522847,16 16,16.4477153 16,17 C16,17.5522847 15.5522847,18 15,18 L1,18 C0.44771525,18 0,17.5522847 0,17 C0,16.4477153 0.44771525,16 1,16 Z" id="Shape"></path>
            </g>
            <g id="icon-arrow-download-gray" transform="translate(20.000000, 41.950000)" fill="#6C7778" fill-rule="nonzero">
                <path d="M14.386294,7.489799 L8.70132976,13.0829917 C8.31216348,13.4658757 7.68783652,13.4658757 7.29867024,13.0829917 L1.62396623,7.49989363 C1.29074306,7.17204964 1.28638238,6.63614882 1.61422637,6.30292565 C1.62087223,6.29617075 1.62763106,6.28952793 1.6345,6.283 C1.99196255,5.94328381 2.5512291,5.93771078 2.91539047,6.27023606 L7,10 L7,1 C7,0.44771525 7.44771525,0 8,0 C8.55228475,0 9,0.44771525 9,1 L9,10 L13.1338176,6.25686803 C13.4921246,5.93242444 14.0412701,5.94366536 14.386,6.2825 C14.7194663,6.61026366 14.7240891,7.14629642 14.3963255,7.47976268 C14.3930098,7.48313608 14.3896658,7.48648164 14.386294,7.489799 Z M1,16 L15,16 C15.5522847,16 16,16.4477153 16,17 C16,17.5522847 15.5522847,18 15,18 L1,18 C0.44771525,18 0,17.5522847 0,17 C0,16.4477153 0.44771525,16 1,16 Z" id="Shape"></path>
            </g>
            <g id="icon-arrow-right-black" transform="translate(0.000000, 27.309673)" fill="#232F3E" fill-rule="nonzero">
                <path d="M7.614,0.254327127 L13.2928932,5.93322035 C13.6834175,6.32374464 13.6834175,6.95690962 13.2928932,7.34743391 L7.62433415,13.015993 C7.28513912,13.355188 6.73519533,13.355188 6.3960003,13.015993 C6.39263911,13.0126318 6.38930556,13.009243 6.386,13.0058271 C6.04171694,12.6500492 6.0359156,12.0871057 6.37279348,11.7243082 L10.165,7.64032713 L1,7.64032713 C0.44771525,7.64032713 0,7.19261188 0,6.64032713 C0,6.08804238 0.44771525,5.64032713 1,5.64032713 L10.165,5.64032713 L6.36010664,1.50717185 C6.03144613,1.15015661 6.04286911,0.597458016 6.386,0.254327127 C6.72510284,-0.084775709 7.27489716,-0.084775709 7.614,0.254327127 Z" id="Path"></path>
            </g>
            <g id="icon-arrow-right-blue" transform="translate(19.000000, 27.309673)" fill="#0099D9" fill-rule="nonzero">
                <path d="M7.614,0.254327127 L13.2928932,5.93322035 C13.6834175,6.32374464 13.6834175,6.95690962 13.2928932,7.34743391 L7.62433415,13.015993 C7.28513912,13.355188 6.73519533,13.355188 6.3960003,13.015993 C6.39263911,13.0126318 6.38930556,13.009243 6.386,13.0058271 C6.04171694,12.6500492 6.0359156,12.0871057 6.37279348,11.7243082 L10.165,7.64032713 L1,7.64032713 C0.44771525,7.64032713 0,7.19261188 0,6.64032713 C0,6.08804238 0.44771525,5.64032713 1,5.64032713 L10.165,5.64032713 L6.36010664,1.50717185 C6.03144613,1.15015661 6.04286911,0.597458016 6.386,0.254327127 C6.72510284,-0.084775709 7.27489716,-0.084775709 7.614,0.254327127 Z" id="Path"></path>
            </g>
            <g id="icon-caret-down-black" stroke-linecap="round" stroke-linejoin="round" transform="translate(0.000000, 69.950000)" stroke="#232F3E" stroke-width="2">
                <polyline id="Path" points="0 0 5 5 10 0"></polyline>
            </g>
            <g id="icon-caret-down-white" stroke-linecap="round" stroke-linejoin="round" transform="translate(13.000000, 69.950000)" stroke="#FFFFFF" stroke-width="2">
                <polyline id="Path" points="0 0 5 5 10 0"></polyline>
            </g>
            <g id="icon-caret-up-black" stroke-linecap="round" stroke-linejoin="round" transform="translate(0.000000, 62.950000)" stroke="#232F3E" stroke-width="2">
                <polyline id="Path" points="0 5 5 0 10 5"></polyline>
            </g>
            <g id="icon-caret-up-white" stroke-linecap="round" stroke-linejoin="round" transform="translate(13.000000, 62.950000)" stroke="#FFFFFF" stroke-width="2">
                <polyline id="Path" points="0 5 5 0 10 5"></polyline>
            </g>
            <g id="icon-chat-black" transform="translate(0.000000, 109.949783)" fill="#232F3E" fill-rule="nonzero">
                <path d="M15.324,0.000216545079 C15.749,0.000216545079 16.149,0.157216545 16.52,0.472216545 C16.84,0.813216545 17,1.20721655 17,1.65221655 L17,11.7242165 C17,12.1442165 16.84,12.5372165 16.52,12.9042165 C16.175,13.2462165 15.776,13.4152165 15.324,13.4152165 L3.392,13.4152165 L0,16.7602165 L0,1.65321655 C0,1.20721655 0.173,0.813216545 0.519,0.472216545 C0.82409086,0.163578936 1.24208021,-0.00694048833 1.676,0.000216545079 L15.324,0.000216545079 Z" id="a"></path>
            </g>
            <g id="icon-minus-black" transform="translate(0.000000, 106.950000)" fill="#232F3E" fill-rule="nonzero">
                <path d="M1,2 L15,2 C15.5522847,2 16,1.55228475 16,1 C16,0.44771525 15.5522847,0 15,0 L1,0 C0.44771525,0 0,0.44771525 0,1 C0,1.55228475 0.44771525,2 1,2 Z" id="Path"></path>
            </g>
            <g id="icon-minus-black" transform="translate(20.000000, 107.450000)" stroke="#FFFFFF" stroke-width="2">
                <line x1="0" y1="0.5" x2="16" y2="0.5" id="Path"></line>
            </g>
            <g id="icon-pause-gray" transform="translate(35.000000, 202.950000)" stroke="#636D6E" stroke-width="2">
                <circle id="Oval" cx="15" cy="15" r="15"></circle>
                <path d="M11.5,10 L11.5,20 M17.5,10 L17.5,20" id="Shape" stroke-linecap="round"></path>
            </g>
            <g id="icon-play-arrow-black" stroke-linejoin="round" transform="translate(2.000000, 131.950000)" stroke="#232F3E" stroke-width="4">
                <polygon id="Path" points="0 28 20 14 0 0"></polygon>
            </g>
            <g id="icon-play-arrow-white" stroke-linejoin="round" transform="translate(29.000000, 131.950000)" stroke="#FFFFFF" stroke-width="4">
                <polygon id="Path" points="0 28 20 14 0 0"></polygon>
            </g>
            <g id="icon-play-black-small" stroke-linejoin="round" transform="translate(0.000000, 165.950000)" stroke="#232F3E" stroke-width="2">
                <circle id="Oval" cx="16" cy="16" r="16"></circle>
                <polygon id="Path" points="12 23 22 16 12 9"></polygon>
            </g>
            <g id="icon-play-black-small" stroke-linejoin="round" transform="translate(105.000000, 202.950000)" stroke="#232F3E" stroke-width="2">
                <circle id="Oval" cx="15" cy="15" r="15"></circle>
                <polygon id="Path" points="11.25 21.5625 20.625 15 11.25 8.4375"></polygon>
            </g>
            <g id="icon-play-black-small" stroke-linejoin="round" transform="translate(140.000000, 202.950000)" stroke="#636D6E" stroke-width="2">
                <circle id="Oval" cx="15" cy="15" r="15"></circle>
                <polygon id="Path" points="11.25 21.5625 20.625 15 11.25 8.4375"></polygon>
            </g>
            <g id="icon-play-black-small" stroke-linejoin="round" transform="translate(175.000000, 202.950000)" stroke="#FFFFFF" stroke-width="2">
                <circle id="Oval" cx="15" cy="15" r="15"></circle>
                <polygon id="Path" points="11.25 21.5625 20.625 15 11.25 8.4375"></polygon>
            </g>
            <g id="icon-play-blue-large" transform="translate(0.000000, 285.950000)" fill-rule="nonzero">
                <circle id="Oval" fill="#FFFFFF" cx="45" cy="45" r="45"></circle>
                <path d="M38.568,62.048 L59.324,46.274 C59.7222113,45.9714506 59.9560517,45.5001084 59.9560517,45 C59.9560517,44.4998916 59.7222113,44.0285494 59.324,43.726 L38.568,27.952 C38.0840158,27.5842518 37.4334483,27.5225113 36.8889269,27.7926516 C36.3444054,28.062792 36,28.6181518 36,29.226 L36,60.774 C36,61.3818482 36.3444054,61.937208 36.8889269,62.2073484 C37.4334483,62.4774887 38.0840158,62.4157482 38.568,62.048 Z" id="Path" fill="#0099D9"></path>
            </g>
            <g id="icon-play-blue-medium" transform="translate(0.000000, 236.950000)" fill-rule="nonzero">
                <circle id="Oval" fill="#FFFFFF" cx="23" cy="23" r="23"></circle>
                <path d="M19.316,31.987 L30.157,23.648 C30.3580167,23.4931367 30.4757806,23.2537526 30.4757806,23 C30.4757806,22.7462474 30.3580167,22.5068633 30.157,22.352 L19.317,14.012 C19.0699025,13.821769 18.736141,13.7885792 18.4564192,13.9264223 C18.1766974,14.0642655 17.9996831,14.3491588 17.9999968,14.661 L17.9999968,31.339 C18.0003567,31.650295 18.1773721,31.9344061 18.4566467,32.0719212 C18.7359213,32.2094364 19.0690427,32.1765173 19.316,31.987 L19.316,31.987 Z" id="Path" fill="#0099D9"></path>
            </g>
            <g id="icon-play-white-small" stroke-linejoin="round" transform="translate(37.000000, 165.950000)" stroke="#FFFFFF" stroke-width="2">
                <circle id="Oval" cx="16" cy="16" r="16"></circle>
                <polygon id="Path" points="12 23 22 16 12 9"></polygon>
            </g>
            <g id="icon-plus-black" transform="translate(0.000000, 89.950000)" fill="#232F3E" fill-rule="nonzero">
                <path d="M7,7 L7,1 C7,0.44771525 7.44771525,0 8,0 C8.55228475,0 9,0.44771525 9,1 L9,7 L15,7 C15.5522847,7 16,7.44771525 16,8 C16,8.55228475 15.5522847,9 15,9 L9,9 L9,15 C9,15.5522847 8.55228475,16 8,16 C7.44771525,16 7,15.5522847 7,15 L7,9 L1,9 C0.44771525,9 0,8.55228475 0,8 C0,7.44771525 0.44771525,7 1,7 L7,7 Z" id="Shape"></path>
            </g>
            <g id="icon-plus-black" stroke-linecap="round" transform="translate(52.000000, 95.950000) rotate(-45.000000) translate(-52.000000, -95.950000) translate(44.000000, 87.950000)" stroke="#232F3E" stroke-width="2">
                <path d="M0,8 L16,8 M8,0 L8,16" id="Shape"></path>
            </g>
            <g id="icon-plus-black" stroke-linecap="round" transform="translate(76.000000, 95.950000) rotate(-45.000000) translate(-76.000000, -95.950000) translate(68.000000, 87.950000)" stroke="#FFFFFF" stroke-width="2">
                <path d="M0,8 L16,8 M8,0 L8,16" id="Shape"></path>
            </g>
            <g id="icon-plus-black" transform="translate(20.000000, 89.950000)" stroke="#FFFFFF" stroke-width="2">
                <path d="M0,8 L16,8 M8,0 L8,16" id="Shape"></path>
            </g>
            <g id="icon-tooltip-black" transform="translate(0.000000, 76.950000)" fill="#232F3E" fill-rule="nonzero">
                <path d="M6,9.014 C6.32695257,9.014 6.592,8.74895257 6.592,8.422 L6.592,6.002 C6.592,5.67504743 6.32695257,5.41 6,5.41 C5.67304743,5.41 5.408,5.67504743 5.408,6.002 L5.408,8.422 C5.408,8.74895257 5.67304743,9.014 6,9.014 Z M6.592,3.605 L6.592,3.578 C6.592,3.25104743 6.32695257,2.986 6,2.986 C5.67304743,2.986 5.408,3.25104743 5.408,3.578 L5.408,3.605 C5.408,3.93195257 5.67304743,4.197 6,4.197 C6.32695257,4.197 6.592,3.93195257 6.592,3.605 Z M6,10.817 C7.314,10.817 8.45,10.337 9.408,9.38 C10.348,8.442 10.817,7.315 10.817,6 C10.817,4.704 10.347,3.568 9.408,2.591 C8.432,1.652 7.296,1.183 6,1.183 C4.685,1.183 3.559,1.653 2.62,2.591 C1.662,3.55 1.183,4.685 1.183,6 C1.183,7.315 1.662,8.442 2.62,9.38 C3.559,10.338 4.685,10.817 6,10.817 L6,10.817 Z M6,0 C7.633,0 9.052,0.582 10.254,1.747 C11.418,2.948 12,4.367 12,6 C12,7.652 11.418,9.061 10.254,10.225 C9.07,11.41 7.652,12 6,12 C4.347,12 2.939,11.409 1.775,10.225 C0.59,9.061 0,7.652 0,6 C0,4.348 0.591,2.93 1.775,1.747 C2.939,0.582 4.347,0 6,0 Z" id="Shape"></path>
            </g>
            <g id="icon-tooltip-gray" transform="translate(13.000000, 76.950000)" fill="#AAB7B8" fill-rule="nonzero">
                <path d="M6,9.014 C6.32695257,9.014 6.592,8.74895257 6.592,8.422 L6.592,6.002 C6.592,5.67504743 6.32695257,5.41 6,5.41 C5.67304743,5.41 5.408,5.67504743 5.408,6.002 L5.408,8.422 C5.408,8.74895257 5.67304743,9.014 6,9.014 Z M6.592,3.605 L6.592,3.578 C6.592,3.25104743 6.32695257,2.986 6,2.986 C5.67304743,2.986 5.408,3.25104743 5.408,3.578 L5.408,3.605 C5.408,3.93195257 5.67304743,4.197 6,4.197 C6.32695257,4.197 6.592,3.93195257 6.592,3.605 Z M6,10.817 C7.314,10.817 8.45,10.337 9.408,9.38 C10.348,8.442 10.817,7.315 10.817,6 C10.817,4.704 10.347,3.568 9.408,2.591 C8.432,1.652 7.296,1.183 6,1.183 C4.685,1.183 3.559,1.653 2.62,2.591 C1.662,3.55 1.183,4.685 1.183,6 C1.183,7.315 1.662,8.442 2.62,9.38 C3.559,10.338 4.685,10.817 6,10.817 L6,10.817 Z M6,0 C7.633,0 9.052,0.582 10.254,1.747 C11.418,2.948 12,4.367 12,6 C12,7.652 11.418,9.061 10.254,10.225 C9.07,11.41 7.652,12 6,12 C4.347,12 2.939,11.409 1.775,10.225 C0.59,9.061 0,7.652 0,6 C0,4.348 0.591,2.93 1.775,1.747 C2.939,0.582 4.347,0 6,0 Z" id="Shape"></path>
            </g>
            <g id="icon-tooltip-white" transform="translate(26.000000, 76.950000)" fill="#FFFFFF" fill-rule="nonzero">
                <path d="M6.592,8.42199979 L6.592,6.002 C6.592,5.67504743 6.32695257,5.41 6,5.41 C5.67304743,5.41 5.408,5.67504743 5.408,6.002 L5.408,8.42299979 C5.408,8.74967645 5.67282376,9.01450021 5.99950042,9.01450021 C5.99966695,9.01450021 5.99983347,9.01450021 6,9.01450021 C6.32703342,9.01422379 6.592,8.74903333 6.592,8.42199979 Z M6.592,3.605 L6.592,3.578 C6.592,3.25104743 6.32695257,2.986 6,2.986 C5.67304743,2.986 5.408,3.25104743 5.408,3.578 L5.408,3.605 C5.408,3.93195257 5.67304743,4.197 6,4.197 C6.32695257,4.197 6.592,3.93195257 6.592,3.605 Z M6,10.817 C7.314,10.817 8.45,10.337 9.408,9.38 C10.348,8.442 10.817,7.315 10.817,6 C10.817,4.704 10.347,3.568 9.408,2.591 C8.432,1.652 7.296,1.183 6,1.183 C4.685,1.183 3.559,1.653 2.62,2.591 C1.662,3.55 1.183,4.685 1.183,6 C1.183,7.315 1.662,8.442 2.62,9.38 C3.559,10.338 4.685,10.817 6,10.817 L6,10.817 Z M6,0 C7.633,0 9.052,0.582 10.254,1.747 C11.418,2.948 12,4.367 12,6 C12,7.652 11.418,9.061 10.254,10.225 C9.07,11.41 7.652,12 6,12 C4.347,12 2.939,11.409 1.775,10.225 C0.59,9.061 0,7.652 0,6 C0,4.348 0.591,2.93 1.775,1.747 C2.939,0.582 4.347,0 6,0 Z" id="Shape"></path>
            </g>
            <g id="icon-chat-blue" transform="translate(20.000000, 109.949783)" fill="#0099D9" fill-rule="nonzero">
                <path d="M15.324,0.000216545079 C15.749,0.000216545079 16.149,0.157216545 16.52,0.472216545 C16.84,0.813216545 17,1.20721655 17,1.65221655 L17,11.7242165 C17,12.1442165 16.84,12.5372165 16.52,12.9042165 C16.175,13.2462165 15.776,13.4152165 15.324,13.4152165 L3.392,13.4152165 L0,16.7602165 L0,1.65321655 C0,1.20721655 0.173,0.813216545 0.519,0.472216545 C0.82409086,0.163578936 1.24208021,-0.00694048833 1.676,0.000216545079 L15.324,0.000216545079 Z" id="a"></path>
            </g>
            <g id="icon-chat-blue" transform="translate(40.000000, 109.949783)" fill="#FFFFFF" fill-rule="nonzero">
                <path d="M15.324,0.000216545079 C15.749,0.000216545079 16.149,0.157216545 16.52,0.472216545 C16.84,0.813216545 17,1.20721655 17,1.65221655 L17,11.7242165 C17,12.1442165 16.84,12.5372165 16.52,12.9042165 C16.175,13.2462165 15.776,13.4152165 15.324,13.4152165 L3.392,13.4152165 L0,16.7602165 L0,1.65321655 C0,1.20721655 0.173,0.813216545 0.519,0.472216545 C0.82409086,0.163578936 1.24208021,-0.00694048833 1.676,0.000216545079 L15.324,0.000216545079 Z" id="a"></path>
            </g>
            <g id="icon-pause-black" transform="translate(0.000000, 202.950000)" stroke="#232F3E" stroke-width="2">
                <circle id="Oval" cx="15" cy="15" r="15"></circle>
                <path d="M12,10 L12,20 M18,10 L18,20" id="Shape" stroke-linecap="round"></path>
            </g>
            <g id="icon-pause-white" transform="translate(70.000000, 202.950000)" stroke="#FFFFFF" stroke-width="2">
                <circle id="Oval" cx="15" cy="15" r="15"></circle>
                <path d="M12,10 L12,20 M18,10 L18,20" id="Shape" stroke-linecap="round" stroke-linejoin="round"></path>
            </g>
            <g id="icon-quote-blue" transform="translate(0.000000, 379.950000)" fill="#0099D9" fill-rule="nonzero">
                <path d="M25.873,1.748 C21.323,3.656 17.751,6.198 15.159,9.378 C12.566,12.556 11.269,15.894 11.269,19.391 C11.269,22.358 12.699,24.901 15.556,27.02 C18.413,29.14 22.222,30.41 26.984,30.834 C26.984,36.344 25.873,40.583 23.651,43.55 C21.429,46.517 18.254,48 14.127,48 C9.894,48 6.481,46.278 3.889,42.834 C1.296,39.391 0,34.861 0,29.245 C0,24.159 1.243,19.311 3.73,14.702 C6.217,10.092 9.63,6.305 13.968,3.338 C17.143,1.113 19.948,0 22.381,0 C23.121,0 23.81,0.159 24.444,0.477 C25.079,0.795 25.556,1.219 25.873,1.748 Z M58.889,1.748 C54.339,3.656 50.767,6.198 48.175,9.378 C45.582,12.556 44.285,15.894 44.285,19.391 C44.285,22.358 45.715,24.901 48.571,27.02 C51.429,29.14 55.238,30.41 60,30.834 C60,36.344 58.889,40.583 56.667,43.55 C54.444,46.517 51.27,48 47.143,48 C42.91,48 39.497,46.278 36.905,42.834 C34.312,39.391 33.015,34.861 33.015,29.245 C33.015,24.159 34.259,19.311 36.746,14.702 C39.233,10.092 42.646,6.305 46.984,3.338 C50.16,1.113 52.963,0 55.397,0 C56.137,0 56.825,0.159 57.46,0.477 C58.095,0.795 58.571,1.219 58.889,1.748 L58.889,1.748 Z" id="Shape"></path>
            </g>
            <g id="icon-magnifying-glass-gray" transform="translate(41.000000, 62.950000)" stroke="#AAB7B8" stroke-width="2">
                <circle id="Oval" cx="7" cy="7" r="7"></circle>
                <line x1="12.075" y1="12.075" x2="17.9999997" y2="17.9999997" id="Path" stroke-linecap="round"></line>
            </g>
            <g id="icon-magnifying-glass-gray" transform="translate(61.000000, 62.950000)" stroke="#0099D9" stroke-width="2">
                <circle id="Oval" cx="7" cy="7" r="7"></circle>
                <line x1="12.075" y1="12.075" x2="18" y2="18" id="Path" stroke-linecap="round"></line>
            </g>
            <g id="icon-hamburger-white" stroke-linecap="round" transform="translate(81.500000, 110.450000)" stroke="#FFFFFF" stroke-width="2">
                <path d="M10,12.5 L0,12.5 M15,6.5 L0,6.5 M15,0.5 L0,0.5" id="Shape"></path>
            </g>
            <g id="icon-hamburger-gray" stroke-linecap="round" transform="translate(61.500000, 110.450000)" stroke="#6C7778" stroke-width="2">
                <path d="M10,12.5 L0,12.5 M15,6.5 L0,6.5 M15,0.5 L0,0.5" id="Shape"></path>
            </g>
            <g id="logo-amazon-white" transform="translate(0.000000, 431.970538)">
                <g id="Fill-1-Clipped" transform="translate(10.948236, 14.887090)">
                    <mask id="mask-3" fill="white">
                        <use xlink:href="#path-2"></use>
                    </mask>
                    <g id="Path"></g>
                    <path d="M37.3296962,3.35875512 C32.8081382,6.67858579 26.2533071,8.44372288 20.6085,8.44372288 C12.6976823,8.44372288 5.57359131,5.53436957 0.182731288,0.691918256 C-0.240325241,0.311544436 0.136919016,-0.207812125 0.645944251,0.086752512 C6.46212314,3.45384857 13.6549325,5.48147736 21.0835903,5.48147736 C26.0949437,5.48147736 31.6034451,4.44698436 36.6724881,2.30794431 C37.4368743,1.98524551 38.0776805,2.80901366 37.3296962,3.35875512" id="Fill-1" fill="#EC912D" fill-rule="nonzero" mask="url(#mask-3)"></path>
                </g>
                <path d="M50.1593466,16.108775 C49.5810374,15.3722228 46.3368499,15.7599115 44.8790582,15.9334992 C44.4376202,15.9863914 44.3691846,15.6023602 44.7670726,15.3243947 C47.3554659,13.515931 51.5962117,14.038101 52.0891178,14.6435481 C52.5854174,15.2543406 51.958468,19.4843113 49.5332456,21.5029372 C49.1599604,21.813257 48.8050567,21.6478281 48.9707727,21.2379134 C49.5165608,19.881847 50.7382214,16.84589 50.1593466,16.108775" id="Fill-4" fill="#EC912D" fill-rule="nonzero"></path>
                <path d="M44.9817116,2.54839205 L44.9817116,0.791132531 C44.9834083,0.523295344 45.1856045,0.345487464 45.4296538,0.346050147 L53.3466929,0.345487464 C53.5997916,0.345487464 53.8031189,0.528640834 53.8031189,0.788600456 L53.8031189,2.29574731 C53.8005738,2.54895473 53.5865004,2.87840573 53.2069938,3.40226375 L49.1059472,9.22715988 C50.6282154,9.19171084 52.2384319,9.41903484 53.6215666,10.1921615 C53.9334859,10.3665933 54.0171923,10.6245836 54.0415124,10.8780723 L54.0415124,12.753214 C54.0415124,13.0112042 53.7573066,13.3105516 53.4583957,13.1546884 C51.0218616,11.8847125 47.7881374,11.7462924 45.0936971,13.1704435 C44.8182579,13.3161785 44.5303759,13.0213325 44.5303759,12.7627796 L44.5303759,10.9804807 C44.5303759,10.694919 44.5357489,10.207354 44.8250449,9.77268121 L49.5762299,2.9912237 L45.4392687,2.99094236 C45.1864528,2.99094236 44.9834083,2.81172777 44.9817116,2.54839205" id="Fill-5" fill="#FFFFFF" fill-rule="nonzero"></path>
                <path d="M60.640459,2.62969977 C58.8642437,2.62969977 58.7521632,5.03573298 58.7521632,6.53697167 C58.7521632,8.03792901 58.7299176,11.2469111 60.618684,11.2469111 C62.4848271,11.2469111 62.5744721,8.65884988 62.5744721,7.08080495 C62.5744721,6.04574926 62.5295082,4.80334483 62.2141953,3.81977466 C61.9446947,2.96562162 61.4048452,2.62969977 60.640459,2.62969977 Z M60.618684,0.119007489 C64.1931723,0.119007489 66.126337,3.17297036 66.126337,7.05464018 C66.126337,10.8066116 63.991259,13.7834868 60.618684,13.7834868 C57.1112173,13.7834868 55.1998276,10.7289613 55.1998276,6.92522305 C55.1998276,3.09503875 57.1332751,0.119007489 60.618684,0.119007489 L60.618684,0.119007489 Z" id="Fill-6" fill="#FFFFFF" fill-rule="nonzero"></path>
                <path d="M41.0998286,13.4934237 C40.9406168,13.6357825 40.6496241,13.6405653 40.5308515,13.5491293 C39.7079274,12.9158294 39.1502619,11.9525158 39.1502619,11.9525158 C37.8279275,13.2922644 36.8916039,13.6943016 35.1792995,13.6943016 C33.1516823,13.6943016 31.5742697,12.4490837 31.5742697,9.95977336 C31.5742697,8.01457766 32.6330422,6.69170954 34.1428676,6.04349853 C35.4493657,5.47265646 37.2747867,5.36912276 38.6712126,5.21297818 C38.6712126,5.21297818 38.7880057,3.71173949 38.3788059,3.16424877 C38.0617963,2.73998567 37.5222296,2.54163985 37.0270611,2.54163985 C36.1334391,2.53798241 35.2703585,3.02160859 35.0989867,3.95144252 C35.0500637,4.21731032 34.852675,4.44069553 34.644823,4.41846955 L32.3383731,4.16976359 C32.1616283,4.149507 31.9218208,3.96832302 31.978662,3.66869423 C32.515118,0.851058288 35.0724042,-1.5959456e-16 37.3647145,-1.5959456e-16 C38.536321,-1.5959456e-16 40.0684869,0.310882449 40.9923677,1.19316965 C42.1636913,2.28224291 42.051423,3.73509085 42.051423,5.31763725 L42.051423,9.04991468 C42.051423,10.1733117 42.520009,10.6656594 42.960033,11.2705438 C43.113589,11.4891462 43.1486552,11.7479805 42.9526804,11.9075012 C42.4603399,12.3179785 41.0998286,13.4934237 41.0998286,13.4934237 Z M38.6712126,7.65136567 L38.6712126,7.13285314 C36.929498,7.13285314 35.0890889,7.50366134 35.0890889,9.54423184 C35.0890889,10.5818196 35.6300697,11.2823602 36.5536677,11.2823602 C37.2295401,11.2823602 37.838108,10.8671 38.2210081,10.1932869 C38.6941188,9.36276652 38.6712126,8.58541973 38.6712126,7.65136567 Z" id="Fill-7" fill="#FFFFFF" fill-rule="nonzero"></path>
                <path d="M9.52527609,13.4934237 C9.3663471,13.6357825 9.07507155,13.6405653 8.95658179,13.5491293 C8.13337487,12.9158294 7.57599224,11.9525158 7.57599224,11.9525158 C6.253375,13.2922644 5.31733416,13.6943016 3.60502983,13.6943016 C1.57712985,13.6943016 -8.88178415e-16,12.4490837 -8.88178415e-16,9.95977336 C-8.88178415e-16,8.01457766 1.05877249,6.69170954 2.56859789,6.04349853 C3.87509599,5.47265646 5.70051704,5.36912276 7.09694293,5.21297818 C7.09694293,5.21297818 7.21345316,3.71173949 6.80453622,3.16424877 C6.48724382,2.73998567 5.94795986,2.54163985 5.45250864,2.54163985 C4.55916935,2.53798241 3.69580599,3.02160859 3.52471696,3.95144252 C3.47551118,4.21731032 3.2784053,4.44069553 3.07055333,4.41846955 L0.763820643,4.16976359 C0.58707577,4.149507 0.347268327,3.96832302 0.404109478,3.66869423 C0.940565516,0.851058288 3.49785174,-1.5959456e-16 5.79044483,-1.5959456e-16 C6.96205125,-1.5959456e-16 8.4942172,0.310882449 9.418098,1.19316965 C10.5891388,2.28224291 10.4768705,3.73509085 10.4768705,5.31763725 L10.4768705,9.04991468 C10.4768705,10.1733117 10.9457393,10.6656594 11.3857633,11.2705438 C11.5393193,11.4891462 11.5743855,11.7479805 11.3781279,11.9075012 C10.8860702,12.3179785 9.52527609,13.4934237 9.52527609,13.4934237 Z M7.09694293,7.65136567 L7.09694293,7.13285314 C5.35522826,7.13285314 3.51453645,7.50366134 3.51453645,9.54423184 C3.51453645,10.5818196 4.05551716,11.2823602 4.97911517,11.2823602 C5.65498756,11.2823602 6.2638383,10.8671 6.6464556,10.1932869 C7.11956628,9.36276652 7.09694293,8.58541973 7.09694293,7.65136567 Z" id="Fill-8" fill="#FFFFFF" fill-rule="nonzero"></path>
                <path d="M16.5687714,6.56257375 C16.5687714,5.13926668 16.5011841,3.17297036 18.2327183,3.17297036 C19.9410636,3.17297036 19.7162441,5.19131488 19.7162441,6.56257375 L19.7187892,13.082665 C19.7187892,13.3184292 19.9091081,13.5088975 20.1511779,13.5240899 L22.5568877,13.5240899 C22.8136626,13.5240899 23.0212318,13.3271508 23.0212318,13.0818209 L23.0212318,6.56257375 C23.0212318,5.86372126 22.9988913,4.82922826 23.2460513,4.2077447 C23.4934941,3.58654249 24.1006481,3.19829111 24.6854615,3.19829111 C25.3819777,3.19829111 25.9215445,3.43152328 26.1014001,4.2597929 C26.2139512,4.75157798 26.1689873,6.04574926 26.1689873,6.56257375 L26.1698357,13.082665 C26.1698357,13.3184292 26.3598718,13.5088975 26.6019415,13.5240899 L29.0073686,13.5240899 C29.2644263,13.5240899 29.4719955,13.3271508 29.4719955,13.0818209 L29.4742578,5.320732 C29.4742578,4.0006773 29.6312073,2.5000013 28.866821,1.46466427 C28.1923626,0.532860958 27.0908886,0.119007489 26.0790595,0.119007489 C24.6628382,0.119007489 23.3362619,0.843743407 22.7514484,2.3964676 C22.07699,0.843743407 21.1327482,0.119007489 19.6263163,0.119007489 C18.1427905,0.119007489 17.0410337,0.843743407 16.4567858,2.3964676 L16.4112563,2.3964676 L16.4112563,0.826018887 C16.4112563,0.578719636 16.2099086,0.378404429 15.9613346,0.378404429 L13.7139882,0.378404429 C13.4654142,0.378404429 13.2640664,0.578719636 13.2640664,0.826018887 L13.2640664,13.0764755 C13.2640664,13.3237747 13.4654142,13.5240899 13.7139882,13.5240899 L16.1188496,13.5240899 C16.3674236,13.5240899 16.5687714,13.3237747 16.5687714,13.0764755 L16.5687714,6.56257375" id="Fill-9" fill="#FFFFFF" fill-rule="nonzero"></path>
                <path d="M71.2327085,13.0764755 C71.2327085,13.3237747 71.0313608,13.5240899 70.7827868,13.5240899 L68.3776425,13.5240899 C68.1293513,13.5240899 67.9277208,13.3237747 67.9277208,13.0764755 L67.9277208,0.826018887 C67.9277208,0.578719636 68.1293513,0.378404429 68.3776425,0.378404429 L70.6015172,0.378404429 C70.8619685,0.378404429 71.051439,0.586878542 71.051439,0.728112016 L71.051439,2.60325366 L71.0978168,2.60325366 C71.7725581,0.920831 72.7162343,0.119007489 74.3798984,0.119007489 C75.4593147,0.119007489 76.5161077,0.506977532 77.1905661,1.56847932 C77.8200606,2.55148681 77.8200606,4.2077447 77.8200606,5.39838228 L77.8200606,13.1372452 C77.7931954,13.3550036 77.5963723,13.5240899 77.3582616,13.5240899 L74.9440681,13.5240899 C74.7209453,13.5100228 74.5410897,13.3468447 74.5153557,13.1372452 L74.5193148,5.70616997 C74.5193148,3.21995441 73.5617817,3.1468056 73.0092066,3.1468056 C72.3664208,3.1468056 71.8494774,3.64618691 71.623244,4.11208857 C71.2861562,4.86298925 71.2324257,5.63105177 71.2324257,6.45988407 L71.2327085,13.0764755" id="Fill-10" fill="#FFFFFF" fill-rule="nonzero"></path>
            </g>
            <g id="icon-question" transform="translate(51.000000, 246.950000)" fill-rule="nonzero">
                <circle id="Oval" fill="#0099D9" cx="13" cy="13" r="13"></circle>
                <g id="Group" transform="translate(9.832000, 7.640000)">
                    <g id="path-3-link" fill="#000000">
                        <path d="M3.904,3.056 C3.904,2.288 3.408,1.856 2.512,1.856 C1.76,1.856 0.928,2.08 1.11022302e-16,2.528 L1.11022302e-16,0.752 C0.912,0.256 1.904,3.33066907e-16 2.944,3.33066907e-16 C4.976,3.33066907e-16 6.176,1.072 6.176,2.816 C6.176,4.288 5.376,5.296 3.456,6.304 L3.456,7.664 L1.632,7.664 L1.44,5.504 L2.272,5.056 C3.44,4.432 3.904,3.888 3.904,3.056 Z M2.576,11.568 C1.728,11.568 1.136,10.976 1.136,10.128 C1.136,9.28 1.728,8.688 2.576,8.688 C3.424,8.688 4.016,9.28 4.016,10.128 C4.016,10.976 3.424,11.568 2.576,11.568 Z" id="path-3"></path>
                    </g>
                    <g id="path-3-link" fill="#FFFFFF">
                        <path d="M3.904,3.056 C3.904,2.288 3.408,1.856 2.512,1.856 C1.76,1.856 0.928,2.08 1.11022302e-16,2.528 L1.11022302e-16,0.752 C0.912,0.256 1.904,3.33066907e-16 2.944,3.33066907e-16 C4.976,3.33066907e-16 6.176,1.072 6.176,2.816 C6.176,4.288 5.376,5.296 3.456,6.304 L3.456,7.664 L1.632,7.664 L1.44,5.504 L2.272,5.056 C3.44,4.432 3.904,3.888 3.904,3.056 Z M2.576,11.568 C1.728,11.568 1.136,10.976 1.136,10.128 C1.136,9.28 1.728,8.688 2.576,8.688 C3.424,8.688 4.016,9.28 4.016,10.128 C4.016,10.976 3.424,11.568 2.576,11.568 Z" id="path-3"></path>
                    </g>
                </g>
                <circle id="circle-1" fill="#0099D9" cx="123.505" cy="13" r="13"></circle>
                <g id="g-1" transform="translate(123.437231, 13.424000) scale(-1, 1) translate(-123.437231, -13.424000) translate(120.349231, 7.640000)">
                    <g id="g-2" fill="#000000">
                        <path d="M3.904,3.056 C3.904,2.288 3.408,1.856 2.512,1.856 C1.76,1.856 0.928,2.08 1.11022302e-16,2.528 L1.11022302e-16,0.752 C0.912,0.256 1.904,3.33066907e-16 2.944,3.33066907e-16 C4.976,3.33066907e-16 6.176,1.072 6.176,2.816 C6.176,4.288 5.376,5.296 3.456,6.304 L3.456,7.664 L1.632,7.664 L1.44,5.504 L2.272,5.056 C3.44,4.432 3.904,3.888 3.904,3.056 Z M2.576,11.568 C1.728,11.568 1.136,10.976 1.136,10.128 C1.136,9.28 1.728,8.688 2.576,8.688 C3.424,8.688 4.016,9.28 4.016,10.128 C4.016,10.976 3.424,11.568 2.576,11.568 Z" id="path-1"></path>
                    </g>
                    <g id="g-2" fill="#FFFFFF">
                        <path d="M3.904,3.056 C3.904,2.288 3.408,1.856 2.512,1.856 C1.76,1.856 0.928,2.08 1.11022302e-16,2.528 L1.11022302e-16,0.752 C0.912,0.256 1.904,3.33066907e-16 2.944,3.33066907e-16 C4.976,3.33066907e-16 6.176,1.072 6.176,2.816 C6.176,4.288 5.376,5.296 3.456,6.304 L3.456,7.664 L1.632,7.664 L1.44,5.504 L2.272,5.056 C3.44,4.432 3.904,3.888 3.904,3.056 Z M2.576,11.568 C1.728,11.568 1.136,10.976 1.136,10.128 C1.136,9.28 1.728,8.688 2.576,8.688 C3.424,8.688 4.016,9.28 4.016,10.128 C4.016,10.976 3.424,11.568 2.576,11.568 Z" id="path-1"></path>
                    </g>
                </g>
            </g>
            <g id="logo-amazon-black" transform="translate(0.000000, 457.970538)">
                <g id="Fill-1-Clipped" transform="translate(10.948236, 14.887090)">
                    <mask id="mask-5" fill="white">
                        <use xlink:href="#path-4"></use>
                    </mask>
                    <g id="Path"></g>
                    <path d="M37.3296962,3.35875512 C32.8081382,6.67858579 26.2533071,8.44372288 20.6085,8.44372288 C12.6976823,8.44372288 5.57359131,5.53436957 0.182731288,0.691918256 C-0.240325241,0.311544436 0.136919016,-0.207812125 0.645944251,0.086752512 C6.46212314,3.45384857 13.6549325,5.48147736 21.0835903,5.48147736 C26.0949437,5.48147736 31.6034451,4.44698436 36.6724881,2.30794431 C37.4368743,1.98524551 38.0776805,2.80901366 37.3296962,3.35875512" id="Fill-1" fill="#EC912D" fill-rule="nonzero" mask="url(#mask-5)"></path>
                </g>
                <path d="M50.1593466,16.108775 C49.5810374,15.3722228 46.3368499,15.7599115 44.8790582,15.9334992 C44.4376202,15.9863914 44.3691846,15.6023602 44.7670726,15.3243947 C47.3554659,13.515931 51.5962117,14.038101 52.0891178,14.6435481 C52.5854174,15.2543406 51.958468,19.4843113 49.5332456,21.5029372 C49.1599604,21.813257 48.8050567,21.6478281 48.9707727,21.2379134 C49.5165608,19.881847 50.7382214,16.84589 50.1593466,16.108775" id="Fill-4" fill="#EC912D" fill-rule="nonzero"></path>
                <path d="M44.9817116,2.54839205 L44.9817116,0.791132531 C44.9834083,0.523295344 45.1856045,0.345487464 45.4296538,0.346050147 L53.3466929,0.345487464 C53.5997916,0.345487464 53.8031189,0.528640834 53.8031189,0.788600456 L53.8031189,2.29574731 C53.8005738,2.54895473 53.5865004,2.87840573 53.2069938,3.40226375 L49.1059472,9.22715988 C50.6282154,9.19171084 52.2384319,9.41903484 53.6215666,10.1921615 C53.9334859,10.3665933 54.0171923,10.6245836 54.0415124,10.8780723 L54.0415124,12.753214 C54.0415124,13.0112042 53.7573066,13.3105516 53.4583957,13.1546884 C51.0218616,11.8847125 47.7881374,11.7462924 45.0936971,13.1704435 C44.8182579,13.3161785 44.5303759,13.0213325 44.5303759,12.7627796 L44.5303759,10.9804807 C44.5303759,10.694919 44.5357489,10.207354 44.8250449,9.77268121 L49.5762299,2.9912237 L45.4392687,2.99094236 C45.1864528,2.99094236 44.9834083,2.81172777 44.9817116,2.54839205" id="Fill-5" fill="#232F3E" fill-rule="nonzero"></path>
                <path d="M60.640459,2.62969977 C58.8642437,2.62969977 58.7521632,5.03573298 58.7521632,6.53697167 C58.7521632,8.03792901 58.7299176,11.2469111 60.618684,11.2469111 C62.4848271,11.2469111 62.5744721,8.65884988 62.5744721,7.08080495 C62.5744721,6.04574926 62.5295082,4.80334483 62.2141953,3.81977466 C61.9446947,2.96562162 61.4048452,2.62969977 60.640459,2.62969977 Z M60.618684,0.119007489 C64.1931723,0.119007489 66.126337,3.17297036 66.126337,7.05464018 C66.126337,10.8066116 63.991259,13.7834868 60.618684,13.7834868 C57.1112173,13.7834868 55.1998276,10.7289613 55.1998276,6.92522305 C55.1998276,3.09503875 57.1332751,0.119007489 60.618684,0.119007489 L60.618684,0.119007489 Z" id="Fill-6" fill="#232F3E" fill-rule="nonzero"></path>
                <path d="M41.0998286,13.4934237 C40.9406168,13.6357825 40.6496241,13.6405653 40.5308515,13.5491293 C39.7079274,12.9158294 39.1502619,11.9525158 39.1502619,11.9525158 C37.8279275,13.2922644 36.8916039,13.6943016 35.1792995,13.6943016 C33.1516823,13.6943016 31.5742697,12.4490837 31.5742697,9.95977336 C31.5742697,8.01457766 32.6330422,6.69170954 34.1428676,6.04349853 C35.4493657,5.47265646 37.2747867,5.36912276 38.6712126,5.21297818 C38.6712126,5.21297818 38.7880057,3.71173949 38.3788059,3.16424877 C38.0617963,2.73998567 37.5222296,2.54163985 37.0270611,2.54163985 C36.1334391,2.53798241 35.2703585,3.02160859 35.0989867,3.95144252 C35.0500637,4.21731032 34.852675,4.44069553 34.644823,4.41846955 L32.3383731,4.16976359 C32.1616283,4.149507 31.9218208,3.96832302 31.978662,3.66869423 C32.515118,0.851058288 35.0724042,-1.5959456e-16 37.3647145,-1.5959456e-16 C38.536321,-1.5959456e-16 40.0684869,0.310882449 40.9923677,1.19316965 C42.1636913,2.28224291 42.051423,3.73509085 42.051423,5.31763725 L42.051423,9.04991468 C42.051423,10.1733117 42.520009,10.6656594 42.960033,11.2705438 C43.113589,11.4891462 43.1486552,11.7479805 42.9526804,11.9075012 C42.4603399,12.3179785 41.0998286,13.4934237 41.0998286,13.4934237 Z M38.6712126,7.65136567 L38.6712126,7.13285314 C36.929498,7.13285314 35.0890889,7.50366134 35.0890889,9.54423184 C35.0890889,10.5818196 35.6300697,11.2823602 36.5536677,11.2823602 C37.2295401,11.2823602 37.838108,10.8671 38.2210081,10.1932869 C38.6941188,9.36276652 38.6712126,8.58541973 38.6712126,7.65136567 Z" id="Fill-7" fill="#232F3E" fill-rule="nonzero"></path>
                <path d="M9.52527609,13.4934237 C9.3663471,13.6357825 9.07507155,13.6405653 8.95658179,13.5491293 C8.13337487,12.9158294 7.57599224,11.9525158 7.57599224,11.9525158 C6.253375,13.2922644 5.31733416,13.6943016 3.60502983,13.6943016 C1.57712985,13.6943016 -8.88178415e-16,12.4490837 -8.88178415e-16,9.95977336 C-8.88178415e-16,8.01457766 1.05877249,6.69170954 2.56859789,6.04349853 C3.87509599,5.47265646 5.70051704,5.36912276 7.09694293,5.21297818 C7.09694293,5.21297818 7.21345316,3.71173949 6.80453622,3.16424877 C6.48724382,2.73998567 5.94795986,2.54163985 5.45250864,2.54163985 C4.55916935,2.53798241 3.69580599,3.02160859 3.52471696,3.95144252 C3.47551118,4.21731032 3.2784053,4.44069553 3.07055333,4.41846955 L0.763820643,4.16976359 C0.58707577,4.149507 0.347268327,3.96832302 0.404109478,3.66869423 C0.940565516,0.851058288 3.49785174,-1.5959456e-16 5.79044483,-1.5959456e-16 C6.96205125,-1.5959456e-16 8.4942172,0.310882449 9.418098,1.19316965 C10.5891388,2.28224291 10.4768705,3.73509085 10.4768705,5.31763725 L10.4768705,9.04991468 C10.4768705,10.1733117 10.9457393,10.6656594 11.3857633,11.2705438 C11.5393193,11.4891462 11.5743855,11.7479805 11.3781279,11.9075012 C10.8860702,12.3179785 9.52527609,13.4934237 9.52527609,13.4934237 Z M7.09694293,7.65136567 L7.09694293,7.13285314 C5.35522826,7.13285314 3.51453645,7.50366134 3.51453645,9.54423184 C3.51453645,10.5818196 4.05551716,11.2823602 4.97911517,11.2823602 C5.65498756,11.2823602 6.2638383,10.8671 6.6464556,10.1932869 C7.11956628,9.36276652 7.09694293,8.58541973 7.09694293,7.65136567 Z" id="Fill-8" fill="#232F3E" fill-rule="nonzero"></path>
                <path d="M16.5687714,6.56257375 C16.5687714,5.13926668 16.5011841,3.17297036 18.2327183,3.17297036 C19.9410636,3.17297036 19.7162441,5.19131488 19.7162441,6.56257375 L19.7187892,13.082665 C19.7187892,13.3184292 19.9091081,13.5088975 20.1511779,13.5240899 L22.5568877,13.5240899 C22.8136626,13.5240899 23.0212318,13.3271508 23.0212318,13.0818209 L23.0212318,6.56257375 C23.0212318,5.86372126 22.9988913,4.82922826 23.2460513,4.2077447 C23.4934941,3.58654249 24.1006481,3.19829111 24.6854615,3.19829111 C25.3819777,3.19829111 25.9215445,3.43152328 26.1014001,4.2597929 C26.2139512,4.75157798 26.1689873,6.04574926 26.1689873,6.56257375 L26.1698357,13.082665 C26.1698357,13.3184292 26.3598718,13.5088975 26.6019415,13.5240899 L29.0073686,13.5240899 C29.2644263,13.5240899 29.4719955,13.3271508 29.4719955,13.0818209 L29.4742578,5.320732 C29.4742578,4.0006773 29.6312073,2.5000013 28.866821,1.46466427 C28.1923626,0.532860958 27.0908886,0.119007489 26.0790595,0.119007489 C24.6628382,0.119007489 23.3362619,0.843743407 22.7514484,2.3964676 C22.07699,0.843743407 21.1327482,0.119007489 19.6263163,0.119007489 C18.1427905,0.119007489 17.0410337,0.843743407 16.4567858,2.3964676 L16.4112563,2.3964676 L16.4112563,0.826018887 C16.4112563,0.578719636 16.2099086,0.378404429 15.9613346,0.378404429 L13.7139882,0.378404429 C13.4654142,0.378404429 13.2640664,0.578719636 13.2640664,0.826018887 L13.2640664,13.0764755 C13.2640664,13.3237747 13.4654142,13.5240899 13.7139882,13.5240899 L16.1188496,13.5240899 C16.3674236,13.5240899 16.5687714,13.3237747 16.5687714,13.0764755 L16.5687714,6.56257375" id="Fill-9" fill="#232F3E" fill-rule="nonzero"></path>
                <path d="M71.2327085,13.0764755 C71.2327085,13.3237747 71.0313608,13.5240899 70.7827868,13.5240899 L68.3776425,13.5240899 C68.1293513,13.5240899 67.9277208,13.3237747 67.9277208,13.0764755 L67.9277208,0.826018887 C67.9277208,0.578719636 68.1293513,0.378404429 68.3776425,0.378404429 L70.6015172,0.378404429 C70.8619685,0.378404429 71.051439,0.586878542 71.051439,0.728112016 L71.051439,2.60325366 L71.0978168,2.60325366 C71.7725581,0.920831 72.7162343,0.119007489 74.3798984,0.119007489 C75.4593147,0.119007489 76.5161077,0.506977532 77.1905661,1.56847932 C77.8200606,2.55148681 77.8200606,4.2077447 77.8200606,5.39838228 L77.8200606,13.1372452 C77.7931954,13.3550036 77.5963723,13.5240899 77.3582616,13.5240899 L74.9440681,13.5240899 C74.7209453,13.5100228 74.5410897,13.3468447 74.5153557,13.1372452 L74.5193148,5.70616997 C74.5193148,3.21995441 73.5617817,3.1468056 73.0092066,3.1468056 C72.3664208,3.1468056 71.8494774,3.64618691 71.623244,4.11208857 C71.2861562,4.86298925 71.2324257,5.63105177 71.2324257,6.45988407 L71.2327085,13.0764755" id="Fill-10" fill="#232F3E" fill-rule="nonzero"></path>
            </g>
            <polyline id="Path-6-Copy-13" stroke="#0099D9" stroke-width="2" stroke-linecap="round" stroke-linejoin="round" transform="translate(64.936705, 140.441360) rotate(-50.000000) translate(-64.936705, -140.441360) " points="55.4367049 135.44136 55.4367049 145.44136 74.4367049 145.44136"></polyline>
            <path d="M9,506.95 C5.13400675,506.95 2,503.815993 2,499.95 C2,496.084007 5.13400675,492.95 9,492.95 C12.8659932,492.95 16,496.084007 16,499.95 C16,503.815993 12.8659932,506.95 9,506.95 Z M9,496.95 C9.55228475,496.95 10,496.502285 10,495.95 C10,495.397715 9.55228475,494.95 9,494.95 C8.44771525,494.95 8,495.397715 8,495.95 C8,496.502285 8.44771525,496.95 9,496.95 Z M9,498.95 C8.44771525,498.95 8,499.397715 8,499.95 L8,503.95 C8,504.502285 8.44771525,504.95 9,504.95 C9.55228475,504.95 10,504.502285 10,503.95 L10,499.95 C10,499.397715 9.55228475,498.95 9,498.95 Z" id="icon-tooltip-fill-dark" fill="#232F3E" fill-rule="nonzero"></path>
            <path d="M24,506.95 C20.1340068,506.95 17,503.815993 17,499.95 C17,496.084007 20.1340068,492.95 24,492.95 C27.8659932,492.95 31,496.084007 31,499.95 C31,503.815993 27.8659932,506.95 24,506.95 Z M24,496.95 C24.5522847,496.95 25,496.502285 25,495.95 C25,495.397715 24.5522847,494.95 24,494.95 C23.4477153,494.95 23,495.397715 23,495.95 C23,496.502285 23.4477153,496.95 24,496.95 Z M24,498.95 C23.4477153,498.95 23,499.397715 23,499.95 L23,503.95 C23,504.502285 23.4477153,504.95 24,504.95 C24.5522847,504.95 25,504.502285 25,503.95 L25,499.95 C25,499.397715 24.5522847,498.95 24,498.95 Z" id="icon-tooltip-fill-lightgray" fill="#AAB7B8" fill-rule="nonzero"></path>
            <g id="icon-check-circle-blue" transform="translate(94.685983, 495.841410)">
                <g id="Mask" fill="#231F20" fill-rule="nonzero">
                    <path d="M15.768,6.891 L9.518,14.391 C9.338,14.607 9.076,14.737 8.795,14.749 C8.78,14.75 8.765,14.75 8.75,14.75 C8.485,14.75 8.231,14.646 8.043,14.457 L4.293,10.707 C3.903,10.317 3.903,9.684 4.293,9.293 C4.684,8.903 5.317,8.903 5.707,9.293 L8.683,12.269 L14.232,5.61 C14.585,5.186 15.215,5.129 15.64,5.482 C16.064,5.835 16.122,6.466 15.768,6.891 M10,8.44105601e-16 C4.477,8.44105601e-16 8.44105601e-16,4.478 8.44105601e-16,10 C8.44105601e-16,15.523 4.477,20 10,20 C15.523,20 20,15.523 20,10 C20,4.478 15.523,8.44105601e-16 10,8.44105601e-16" id="path-5"></path>
                </g>
                <g id="Color-/-Siren-Clipped">
                    <mask id="mask-7" fill="white">
                        <use xlink:href="#path-6"></use>
                    </mask>
                    <g id="Shape"></g>
                    <g id="Color-/-Siren" mask="url(#mask-7)" fill="#0099D9" fill-rule="nonzero">
                        <g transform="translate(0.000400, 0.000400)" id="Color">
                            <rect x="0" y="0" width="20" height="20"></rect>
                        </g>
                    </g>
                </g>
            </g>
            <path d="M39,506.95 C35.1340068,506.95 32,503.815993 32,499.95 C32,496.084007 35.1340068,492.95 39,492.95 C42.8659932,492.95 46,496.084007 46,499.95 C46,503.815993 42.8659932,506.95 39,506.95 Z M39,496.95 C39.5522847,496.95 40,496.502285 40,495.95 C40,495.397715 39.5522847,494.95 39,494.95 C38.4477153,494.95 38,495.397715 38,495.95 C38,496.502285 38.4477153,496.95 39,496.95 Z M39,498.95 C38.4477153,498.95 38,499.397715 38,499.95 L38,503.95 C38,504.502285 38.4477153,504.95 39,504.95 C39.5522847,504.95 40,504.502285 40,503.95 L40,499.95 C40,499.397715 39.5522847,498.95 39,498.95 Z" id="icon-tooltip-fill-white" fill="#FFFFFF" fill-rule="nonzero"></path>
            <g id="icon-close-circle-gray" transform="translate(120.000200, 495.950100)" fill="#879596" fill-rule="nonzero">
                <path d="M14.535,13.121 C14.926,13.512 14.926,14.144 14.535,14.535 C14.34,14.73 14.084,14.828 13.828,14.828 C13.572,14.828 13.316,14.73 13.121,14.535 L10,11.414 L6.879,14.535 C6.683,14.73 6.428,14.828 6.172,14.828 C5.916,14.828 5.66,14.73 5.465,14.535 C5.074,14.144 5.074,13.512 5.465,13.121 L8.586,10 L5.465,6.879 C5.074,6.488 5.074,5.855 5.465,5.465 C5.855,5.074 6.488,5.074 6.879,5.465 L10,8.586 L13.121,5.465 C13.512,5.074 14.144,5.074 14.535,5.465 C14.926,5.855 14.926,6.488 14.535,6.879 L11.414,10 L14.535,13.121 Z M10,2.3306281e-16 C4.477,2.3306281e-16 4.66125619e-16,4.477 4.66125619e-16,10 C4.66125619e-16,15.522 4.477,20 10,20 C15.522,20 20,15.522 20,10 C20,4.477 15.522,2.3306281e-16 10,2.3306281e-16 L10,2.3306281e-16 Z" id="path-7"></path>
            </g>
            <g id="icon-close-circle-red" transform="translate(144.000000, 495.950100)" fill="#CC0C39" fill-rule="nonzero">
                <path d="M14.535,13.121 C14.926,13.512 14.926,14.144 14.535,14.535 C14.34,14.73 14.084,14.828 13.828,14.828 C13.572,14.828 13.316,14.73 13.121,14.535 L10,11.414 L6.879,14.535 C6.683,14.73 6.428,14.828 6.172,14.828 C5.916,14.828 5.66,14.73 5.465,14.535 C5.074,14.144 5.074,13.512 5.465,13.121 L8.586,10 L5.465,6.879 C5.074,6.488 5.074,5.855 5.465,5.465 C5.855,5.074 6.488,5.074 6.879,5.465 L10,8.586 L13.121,5.465 C13.512,5.074 14.144,5.074 14.535,5.465 C14.926,5.855 14.926,6.488 14.535,6.879 L11.414,10 L14.535,13.121 Z M10,2.3306281e-16 C4.477,2.3306281e-16 0,4.477 0,10 C0,15.522 4.477,20 10,20 C15.522,20 20,15.522 20,10 C20,4.477 15.522,2.3306281e-16 10,2.3306281e-16 L10,2.3306281e-16 Z" id="path-9"></path>
            </g>
            <path d="M150.247482,574.291509 C150.611164,573.875872 151.242927,573.833755 151.658563,574.197437 C152.042228,574.533144 152.107628,575.097274 151.829373,575.508986 L151.752636,575.608518 L144.752636,583.608518 C144.362012,584.054945 143.680276,584.059999 143.28107,583.645296 L143.200059,583.550014 L140.200059,579.550014 C139.868688,579.108186 139.958231,578.481385 140.400059,578.150014 C140.8079,577.844133 141.373352,577.896901 141.718563,578.254338 L141.800059,578.350014 L144.059059,581.363014 L150.247482,574.291509 Z" id="white-check-mark" fill="#FFFFFF" fill-rule="nonzero"></path>
            <g id="g-3" transform="translate(153.500000, 118.329892) scale(-1, 1) translate(-153.500000, -118.329892) translate(145.000000, 109.949783)" fill="#232F3E" fill-rule="nonzero">
                <path d="M15.324,0.000216545079 C15.749,0.000216545079 16.149,0.157216545 16.52,0.472216545 C16.84,0.813216545 17,1.20721655 17,1.65221655 L17,11.7242165 C17,12.1442165 16.84,12.5372165 16.52,12.9042165 C16.175,13.2462165 15.776,13.4152165 15.324,13.4152165 L3.392,13.4152165 L0,16.7602165 L0,1.65321655 C0,1.20721655 0.173,0.813216545 0.519,0.472216545 C0.82409086,0.163578936 1.24208021,-0.00694048833 1.676,0.000216545079 L15.324,0.000216545079 Z" id="path-8"></path>
            </g>
            <g id="g-4" transform="translate(133.500000, 118.329892) scale(-1, 1) translate(-133.500000, -118.329892) translate(125.000000, 109.949783)" fill="#0099D9" fill-rule="nonzero">
                <path d="M15.324,0.000216545079 C15.749,0.000216545079 16.149,0.157216545 16.52,0.472216545 C16.84,0.813216545 17,1.20721655 17,1.65221655 L17,11.7242165 C17,12.1442165 16.84,12.5372165 16.52,12.9042165 C16.175,13.2462165 15.776,13.4152165 15.324,13.4152165 L3.392,13.4152165 L0,16.7602165 L0,1.65321655 C0,1.20721655 0.173,0.813216545 0.519,0.472216545 C0.82409086,0.163578936 1.24208021,-0.00694048833 1.676,0.000216545079 L15.324,0.000216545079 Z" id="path-8"></path>
            </g>
            <g id="g-4" transform="translate(113.500000, 118.329892) scale(-1, 1) translate(-113.500000, -118.329892) translate(105.000000, 109.949783)" fill="#FFFFFF" fill-rule="nonzero">
                <path d="M15.324,0.000216545079 C15.749,0.000216545079 16.149,0.157216545 16.52,0.472216545 C16.84,0.813216545 17,1.20721655 17,1.65221655 L17,11.7242165 C17,12.1442165 16.84,12.5372165 16.52,12.9042165 C16.175,13.2462165 15.776,13.4152165 15.324,13.4152165 L3.392,13.4152165 L0,16.7602165 L0,1.65321655 C0,1.20721655 0.173,0.813216545 0.519,0.472216545 C0.82409086,0.163578936 1.24208021,-0.00694048833 1.676,0.000216545079 L15.324,0.000216545079 Z" id="path-8"></path>
            </g>
            <g id="g-5" transform="translate(99.675354, 403.950000) scale(-1, 1) translate(-99.675354, -403.950000) translate(69.675354, 379.950000)" fill="#0099D9" fill-rule="nonzero">
                <path d="M25.873,1.748 C21.323,3.656 17.751,6.198 15.159,9.378 C12.566,12.556 11.269,15.894 11.269,19.391 C11.269,22.358 12.699,24.901 15.556,27.02 C18.413,29.14 22.222,30.41 26.984,30.834 C26.984,36.344 25.873,40.583 23.651,43.55 C21.429,46.517 18.254,48 14.127,48 C9.894,48 6.481,46.278 3.889,42.834 C1.296,39.391 0,34.861 0,29.245 C0,24.159 1.243,19.311 3.73,14.702 C6.217,10.092 9.63,6.305 13.968,3.338 C17.143,1.113 19.948,0 22.381,0 C23.121,0 23.81,0.159 24.444,0.477 C25.079,0.795 25.556,1.219 25.873,1.748 Z M58.889,1.748 C54.339,3.656 50.767,6.198 48.175,9.378 C45.582,12.556 44.285,15.894 44.285,19.391 C44.285,22.358 45.715,24.901 48.571,27.02 C51.429,29.14 55.238,30.41 60,30.834 C60,36.344 58.889,40.583 56.667,43.55 C54.444,46.517 51.27,48 47.143,48 C42.91,48 39.497,46.278 36.905,42.834 C34.312,39.391 33.015,34.861 33.015,29.245 C33.015,24.159 34.259,19.311 36.746,14.702 C39.233,10.092 42.646,6.305 46.984,3.338 C50.16,1.113 52.963,0 55.397,0 C56.137,0 56.825,0.159 57.46,0.477 C58.095,0.795 58.571,1.219 58.889,1.748 L58.889,1.748 Z" id="path-10"></path>
            </g>
            <polyline id="polyline-2" stroke="#0099D9" stroke-width="2.99999973" stroke-linecap="round" stroke-linejoin="round" transform="translate(75.183772, 505.231433) rotate(-49.999967) translate(-75.183772, -505.231433) " points="67.9558558 500.436132 66.8880331 510.026735 83.4795104 509.602162"></polyline>
        </g>
    </g>
</svg>