<svg xmlns="http://www.w3.org/2000/svg" viewBox="0 0 297.68 1026.14"><defs><style>.cls-1{fill:#098094;}.cls-2{fill:#e7be6a;}.cls-3{fill:#00a3b2;}.cls-4{fill:#f68e1f;}.cls-5{fill:#05464f;}.cls-6{fill:#19a3b2;}.cls-7{fill:#85d0db;}.cls-10,.cls-12,.cls-14,.cls-15,.cls-8{fill:none;stroke-linecap:round;stroke-miterlimit:10;}.cls-8{stroke:#f9a526;}.cls-9{fill:#995e29;}.cls-10,.cls-12{stroke:#042f36;}.cls-10,.cls-15{stroke-width:2px;}.cls-11{fill:#fbe8b3;}.cls-12{stroke-width:4px;}.cls-13{fill:#4d4e4f;}.cls-14{stroke:#19a3b2;}.cls-15{stroke:#995e29;}</style></defs><g id="Layer_2" data-name="Layer 2"><g id="Layer_3" data-name="Layer 3"><path id="Left_Shoe" data-name="Left Shoe" class="cls-1" d="M191.68,1000.4c-.37,6.48-24,15-44.75,8.24-17.58-5.67-23.59-27.14-34.08-42.49,9.92-14.79,13.77-26.32,21.91-24.72,4.82.94,6.77,10.58,9.41,19.61,2.2,7.5,4.88,14.59,10.06,16,6,1.59,16.22,6.28,24.46,11.27C186.05,992.72,191.84,997.43,191.68,1000.4Z"/><path id="Left_Foot" data-name="Left Foot" class="cls-2" d="M178.69,988.27c-7.71,7.72-22.55,9.36-31.2,2.21-8.08-6.69-8.92-20.46-3.32-29.44,2.2,7.5,4.88,14.59,10.06,16C160.25,978.59,170.45,983.28,178.69,988.27Z"/><path class="cls-3" d="M273.55,674.34,262,704.88h0l-4.9,12.91-3.34,8.81L177.67,927.26l-7.27,19.17-1.91,5.05-8.05,21.25a46.79,46.79,0,0,1-20.13-1.39c-3.37-1-5.49-4.18-7-7.86q-1.16-12.79-2.3-25.6c16.67-69.74,31.07-134.18,46.56-201.14.15-.65.31-1.31.45-2,.08-.32-.42,24.35-.42,24.35l7.07-26.46h0l.61-2.27v.31c.61-2.11,1.18-4.29,1.68-6.53l-2,.05c-.95,0-3,0-4.53.08q1-4.2,1.95-8.44h0a.45.45,0,0,0,0-.11c.13-.53.26-1.07.38-1.62,1-4.23,9.74-41.44,13.28-56.1.43-1.82.87-3.62,1.3-5.44l20,5.7Z"/><path id="Right_Shoe" data-name="Right Shoe" class="cls-1" d="M140.94,993.67c-8.62,10.11-15.59,15.91-15.18,24,.65,12.94,59.4,10.31,63-2.58,2.15-7.74-13.22-20.31-28.7-23.26C156.4,991.1,146.65,987,140.94,993.67Z"/><path id="Right_Foot" data-name="Right Foot" class="cls-2" d="M148.05,993.48c-9.18,2.4-14.6,15.22-11.23,18.09,7.56,6.45,35.06,2.71,36.7-6.48C175,996.87,156,991.4,148.05,993.48Z"/><path class="cls-4" d="M133.3,963.48c-2.34-5.62-3.26-12.39-5.09-14,.94-3.88,1.86-7.76,2.79-11.6Q132.14,950.68,133.3,963.48Z"/><path class="cls-1" d="M185.27,730.39v.31l-.08,2h0l-7.51,194.59-7.27,19.17-1.7,47.35a46.38,46.38,0,0,1-18.06,5.06,48.47,48.47,0,0,1-7.23-1.09,47.73,47.73,0,0,1-7.23-2.32q-1.43-16-2.88-31.95-1.16-12.79-2.3-25.6-9.37-103.78-18.74-207.57c-.06-.73-.37-4.26-.81-9.15-.16-1.68-.33-3.51-.5-5.44-.39-4.33-.82-9.17-1.26-13.89-.51-5.75-1-11.31-1.41-15.55s-.62-7-.67-7.59l30.72-1.48h0l13.22-.63,28.58-1.38-1.47,40.94-.29,8.19-.31,8.45-.07,2c.08-.32-.42,24.35-.42,24.35l7.07-26.46h0Z"/><path class="cls-3" d="M180.15,675.2l-1.72,40.94-.35,8.19-.36,8.45-.08,2L168.7,946.43l-2,47.35c-4,1.76-9.18,3.75-19,4.33A69.09,69.09,0,0,1,130.32,995c-.84-8-18-176.48-28.27-264.38-3.36-28.69-6-48.8-7.1-52l36.1-1.48,15.53-.63Z"/><path class="cls-1" d="M180.15,675.2l-1.8,40.94-.36,8.19-.37,8.45c-30,.26-56.63-.9-75.57-2.12-3.36-28.69-6-48.8-7.1-52l36.1-1.48,15.53-.63Z"/><path class="cls-1" d="M292.55,709.67a309.18,309.18,0,0,1-35.48,8.13l-3.34,8.81a488.06,488.06,0,0,1-68.55,6h-.52c.21-.65.41-1.3.6-2,.61-2.11,1.18-4.29,1.68-6.53.71-3,1.32-6,1.86-9.13,3.79-21.63,4.52-45.63,7.28-57l21.27.26,50.13.61s2,5.32,6.71,15.18c3,6.4,7.11,14.7,12.43,24.7Q289.38,703.93,292.55,709.67Z"/><path class="cls-5" d="M297.68,708.09q-2.54.81-5.13,1.58a309.18,309.18,0,0,1-35.48,8.13,485.53,485.53,0,0,1-70.13,6.37l-2,.05c-.95,0-3,0-4.53.08-1,0-1.8,0-2.05,0h-.31c-17.79.14-47.6-1.78-66.63-3.17-4.14-.3-7.75-.57-10.62-.8l-7.2-.58V648.31l67.72.82h0l2.55,0,33.51.42,71.32.86s6.62,17.06,22.88,46.79C293.51,700.67,295.54,704.29,297.68,708.09Z"/><path id="Ponytail" class="cls-5" d="M82,179.49s21.37-20,20.18-45.55C101.06,110.49,71.43,86.25,73,53.75,74.05,30.89,95.94,4.9,115.7,9.1c6,1.28,10.59,5.08,14.82,10.29,19.78,24.34,39,76.86,14.73,119.74-22.62,39.4-42,38.18-42,38.18s4.18-9.5,2.19-11.18A30,30,0,0,1,82,179.49Z"/><ellipse id="Ponytail_Knot" data-name="Ponytail Knot" class="cls-6" cx="120.55" cy="44.99" rx="8.38" ry="11"/><path id="Hair_back" data-name="Hair back" class="cls-5" d="M141.16,118.37c-20.5-10.42-26.95-37-26.4-58.07,1-38.46,32.33-54,59.33-59.07,33.49-6.34,72.14,13.17,70.39,28.65-2,17.85-5,9.05-19.86,20.62-40.39,31.49-38.14,69.15-63.09,72.39C152.4,124.08,145.13,120.38,141.16,118.37Z"/><path id="Cape" class="cls-1" d="M169.35,626.39s0,0,0,.06c-6.94,26.33-18.43,45.44-35.6,53.19-32.16,14.5-75.73,5.1-104.9-10.45v0L63.23,561.47h0C80.59,477.81,90.7,361.16,81,228a14.56,14.56,0,0,1,4.73,1.16C131.92,248.36,192.29,499,169.35,626.39Z"/><g id="Left_Arm" data-name="Left Arm"><path id="Left_Arm-2" data-name="Left Arm" class="cls-2" d="M232.71,520.17l23.71,2.66c3.81-5.87,7.08-28.11,5.63-52.66-2.29-38.47,5.65-91.35-5.45-108.1,2.85-37.95-3.19-83.34-.18-126.31l-23.71-24.31Z"/><path class="cls-7" d="M256.42,238.56c-3.63,1.51-7.13,2.84-10.48,4a188.57,188.57,0,0,1-28.06,7.7,94.07,94.07,0,0,1-10.32,1.51l-.68-1.9-10.38-29-11.14-31.17s9.2-10.6,21.19-15.78A36.73,36.73,0,0,1,212,172a23.8,23.8,0,0,1,18.14,2.08c16.47,9.32,23.39,33.66,25.53,54.22.18,1.73.33,3.41.45,5.06S256.37,236.88,256.42,238.56Z"/><path class="cls-5" d="M256.16,233.36l-38.28,16.92a94.07,94.07,0,0,1-10.32,1.51l-.68-1.9,48.83-21.59C255.89,230,256,231.71,256.16,233.36Z"/></g><path class="cls-8" d="M189.12,310c11-3.54,21.95-3.66,36-4.15"/><path class="cls-5" d="M169.34,626.45c-6.24,34.63-18.64,60.14-39.17,69.41-33.93,15.31-80.6,4-109.61-13.1a117.71,117.71,0,0,0,8.28-13.57c29.17,15.55,72.74,24.95,104.9,10.45C150.91,671.89,162.4,652.78,169.34,626.45Z"/><path id="Ear" class="cls-2" d="M160.77,106.3c-18.35,3.77-28.92-14.89-26.64-27.65,1.5-8.46,13.71-15.68,17.09-5S156.5,92,160.77,106.3Z"/><path class="cls-7" d="M297.68,695.11c-1.91.72-3.92,1.42-6.06,2.11-1.6.52-3.28,1-5,1.55-7.3,2.17-15.62,4.22-24.65,6.11h0c-22.67,4.76-82.06,11.16-83.29,11.25-24.36,1.73-79.76-.62-85.05-1.52l-1.26-.22a83.35,83.35,0,0,1-16.57-4.53c.23-2.55.45-5.22.67-8,.41-5.16.78-10.71,1.15-16.56,5.15-82.71,7.1-227.55,22.36-258.74,46.26-94.51.12-130.12-5.71-157.69-7.73-36.64-28.22-58.89-7.2-67.65,15.12-6.3,30.79-13.25,46.17-19,26.73-9.92,52.62-16.05,73.31-8.38,1.18.43,2.32.91,3.46,1.43A221.84,221.84,0,0,0,227.49,214c6.34,11.14,12.83,20.54,18.45,28.59,10.14,14.54,17.5,24.72,16.22,32.9-2,12.7-14.64,16.45-21.44,27.48-1.34,46.26-5.78,78.85-.87,122C251.79,530.13,287.71,641.42,297.68,695.11Z"/><path id="Neck_Outline" data-name="Neck Outline" class="cls-5" d="M228.39,216.91l-31.89,3.94-57.09,7-6.17-45.61c26.73-9.92,52.62-16.05,73.31-8.38A36.73,36.73,0,0,1,212,172c6.53,14.11,13.1,34.48,15.45,42C228.07,215.83,228.39,216.91,228.39,216.91Z"/><path class="cls-2" d="M218.59,210.12s-33.23-.75-77.92,10c0,4-28.09-13.64-20.95-24.66,10.24-15.83,28.46-19.73,32-77.89,0-.3,0-.59,0-.87a54.74,54.74,0,0,1,1.9-11.22,25.57,25.57,0,0,1,5.51-10.45,12.34,12.34,0,0,1,6.52-3.92c6.32-1.35,12.05,3.73,16.8,11.93h0a85.33,85.33,0,0,1,6.65,15c3.5,10.16,2.64,17.19,2.51,25a63.81,63.81,0,0,0,.3,8.16,58.57,58.57,0,0,0,4.68,17.29C213.81,186.49,218.59,210.12,218.59,210.12Z"/><path class="cls-9" d="M191.63,143.1a24.73,24.73,0,0,1-6.27.81c-16.71,0-30.4-16.89-31.73-38.38,2.61-8.92,7.28-13.37,12-14.37,9.63-2.06,17.91,10.84,23.46,27C192.62,128.28,191.76,135.31,191.63,143.1Z"/><ellipse class="cls-10" cx="212.47" cy="100.11" rx="1.99" ry="2.55"/><ellipse class="cls-10" cx="213.65" cy="112.25" rx="5.16" ry="10.45" transform="translate(-3.66 7.25) rotate(-1.93)"/><circle class="cls-10" cx="214.85" cy="129.01" r="6.55"/><path id="Face" class="cls-2" d="M214.85,23.85c13.5,9.33,11.65,33.08,13.54,56.42,2.52,31.06-12,55.49-31.67,56.45C169.78,138,137.71,97.19,147.2,53,156.3,10.64,192.79,8.62,214.85,23.85Z"/><ellipse id="Bindi" class="cls-6" cx="203.22" cy="60.3" rx="2.85" ry="3.27"/><g id="Right_Arm" data-name="Right Arm"><path id="Right_Arm-2" data-name="Right Arm" class="cls-2" d="M60.32,229C40.89,240.32-2.19,323.41.09,330.58s77.47,81,96.67,87.85,12.17-9.89,12.17-9.89L38.88,319.49s39.77-38.14,50.53-57.05C96.8,249.46,72,222.16,60.32,229Z"/><path class="cls-7" d="M120.14,247.18,91.19,268.61l-4.37,3.22-5.32,3.94s-.16-.47-.52-1.34a95.43,95.43,0,0,0-29.15-37.86l-1-.81c.56-.7,1.15-1.42,1.73-2.16,1.06-1.34,2.16-2.75,3.32-4.21,13.78-17.47,33.39-41.48,51.39-33.63C122.4,202.37,120.14,247.18,120.14,247.18Z"/><path id="Right_Finger" data-name="Right Finger" class="cls-11" d="M90.34,449.32c-3.58.17-8.86-7.08-7-9.2,1.6-1.82,8.28.13,9.23,4.44C93.23,447.54,92.63,449.21,90.34,449.32Z"/><path id="Right_Finger-2" data-name="Right Finger" class="cls-9" d="M90.34,449.32c-3.58.17-8.86-7.08-7-9.2,1.6-1.82,8.28.13,9.23,4.44C93.23,447.54,92.63,449.21,90.34,449.32Z"/><path id="Right_Hand" data-name="Right Hand" class="cls-2" d="M91.06,456.67c-6.75-6.45-15.25-10.8-14-13.35,2-3.87,10.35,2.85,10.35,2.85S90,442.79,90.61,440c-2.7-2.7-5.4-13.35,4.2-21.9,5.68-5.06,10.37-11.61,13.19-9,1.81,1.68,5.72,8.13-.14,18.9-10.2,18.74-8.85,28-13.28,29.24C93.41,457.59,92.77,458.3,91.06,456.67Z"/><path class="cls-5" d="M91.19,268.61l-4.37,3.22c-.47-1.06-.95-2.11-1.46-3.14a81.77,81.77,0,0,0-12.21-18.27,82,82,0,0,0-19.29-16c-.45-.26-.89-.53-1.34-.78,1.06-1.34,2.16-2.75,3.32-4.21.7.4,1.39.83,2.08,1.25a86.23,86.23,0,0,1,19.2,16.27,87.72,87.72,0,0,1,11.61,16.7C89.6,265.25,90.42,266.91,91.19,268.61Z"/></g><path id="Scarf" class="cls-6" d="M78.61,204.45c-.39-.67,10.62-31.43,46.38-25.58,31.38,5.12,24.56,61.5,78.05,60.26,17.87-.42,35.12-24.57,32.21-40.59-3.27-18-26.62-22.8-32.07-25.77,17.72-9.3,37.87,1.93,46.62,24.18,10,25.36-10,54.36-47.55,66.33-42.25,13.47-57.93-14.95-76.8-38.37-8.48-10.52-18.59-23.94-26.15-27C88.85,197.08,78.85,204.86,78.61,204.45Z"/><path id="Hair_Front" data-name="Hair Front" class="cls-5" d="M237.19,23.85a11.57,11.57,0,0,1-3.27,10.81C202,28.12,176.36,59.29,155.49,47.73c-2.76,13.83,6.79,30.88-.41,32.45-5.2,1.14-.49-9.09-12-11.87-14.21-3.44-25.7-20.17-14.22-36.67C153.71-4.1,233.22,7.61,237.19,23.85Z"/><path id="Necklace" class="cls-12" d="M191.93,151.26a12.75,12.75,0,0,1-9.71,4.59c-15,.65-23.63-14.59-30.49-39.1-.5-1.84-1-3.72-1.51-5.67"/><ellipse class="cls-13" cx="151.47" cy="102.02" rx="1.99" ry="2.55"/><ellipse class="cls-6" cx="152.64" cy="114.16" rx="5.16" ry="10.45" transform="translate(-3.76 5.2) rotate(-1.93)"/><circle class="cls-10" cx="153.85" cy="130.92" r="6.55"/><path class="cls-14" d="M134.73,304.3c2.2,4.73,11,10.24,19.88,9.39"/><path class="cls-15" d="M178.9,112.15a9,9,0,0,0,3.52,4.69,8.85,8.85,0,0,0,4.68,1.46"/><path class="cls-15" d="M203.81,106.73a9,9,0,0,0,5.13-2.82c1.54-1.74.47-3.63.6-4.44"/></g></g></svg>